<?xml version="1.0" encoding="utf-8"?>
<!-- Generator: Adobe Illustrator 27.2.0, SVG Export Plug-In . SVG Version: 6.00 Build 0)  -->
<svg version="1.1" id="Layer_1" xmlns="http://www.w3.org/2000/svg" xmlns:xlink="http://www.w3.org/1999/xlink" x="0px" y="0px"
	 viewBox="0 0 1102 666" style="enable-background:new 0 0 1102 666;" xml:space="preserve">
<style type="text/css">
	.st0{fill:#F5F5F5;}
	.st1{fill:none;}
	.st2{fill:none;stroke:#000000;stroke-linecap:round;stroke-linejoin:round;stroke-miterlimit:10;}
	.st3{fill:none;stroke:#000000;stroke-miterlimit:10;}
	.st4{fill:none;stroke:#000000;stroke-linecap:round;stroke-linejoin:round;}
	.st5{fill:none;stroke:#000000;stroke-linejoin:round;stroke-miterlimit:10;}
	.st6{fill:none;stroke:#000000;stroke-linecap:round;stroke-miterlimit:10;}
	.st7{fill:none;stroke:#333333;stroke-linecap:round;stroke-linejoin:round;stroke-miterlimit:10;}
</style>
<g>
	<rect class="st0" width="1102" height="666"/>
</g>
<g>
	<g>
		<path class="st1" d="M771.9,582.5h32v32h-32V582.5z"/>
		<circle cx="787.9" cy="607.4" r="1.5"/>
		<path class="st2" d="M779.3,598.6c2.2-2.2,5.2-3.5,8.6-3.5c3.3,0,6.4,1.3,8.6,3.5 M800.8,594.1c-3.3-3.2-7.9-5.2-12.9-5.2
			s-9.6,2-12.9,5.2 M783.5,602.8c1.2-1.1,2.7-1.8,4.4-1.8c1.7,0,3.3,0.7,4.4,1.8"/>
		<path class="st2" d="M796.5,598.6c-2.2-2.2-5.2-3.5-8.6-3.5c-3.3,0-6.4,1.3-8.6,3.5"/>
	</g>
	<g>
		<path class="st1" d="M528.6,582.5h32v32h-32V582.5z"/>
		<circle cx="536.2" cy="598.5" r="3.6"/>
		<circle cx="553.1" cy="589.1" r="3.6"/>
		<circle cx="553.1" cy="608" r="3.6"/>
		<path class="st3" d="M539.3,600.2l10.7,6.1 M550,590.8l-10.7,6"/>
	</g>
	<g>
		<rect x="163.8" y="582.5" class="st1" width="32" height="32"/>
		<g>
			<path d="M179.8,612c-7.5,0-13.5-6.1-13.5-13.5c0-7.5,6-13.5,13.5-13.5c7.4,0,13.5,6,13.5,13.5C193.3,605.9,187.2,612,179.8,612z"
				/>
			<g>
				<path class="st0" d="M187.4,599.5v5.1c0,0.2-0.1,0.2-0.2,0.2h-2.6c-0.2,0-0.2-0.1-0.2-0.2v-4.7c0-1.2-0.5-2.1-1.5-2.1
					c-0.8,0-1.3,0.5-1.6,1.2c-0.1,0.2-0.1,0.5-0.1,0.8v4.9c0,0.2-0.1,0.2-0.2,0.2h-2.6c-0.2,0-0.2-0.1-0.2-0.2c0-1.2,0.1-7.3,0-8.7
					c0-0.2,0.1-0.2,0.2-0.2h2.4c0.2,0,0.2,0.1,0.2,0.2v1c0,0,0,0,0,0.1V597c0.4-0.6,1.2-1.5,2.8-1.5
					C185.9,595.4,187.4,596.7,187.4,599.5z M173.6,604.7h2.6c0.2,0,0.2-0.1,0.2-0.2v-8.6c0-0.2-0.1-0.2-0.2-0.2h-2.6
					c-0.2,0-0.2,0.1-0.2,0.2v8.7C173.4,604.7,173.5,604.7,173.6,604.7z"/>
			</g>
			<g>
				<path class="st0" d="M174.8,594.5c0.9,0,1.6-0.7,1.6-1.6c0.1-0.9-0.7-1.7-1.6-1.7c-0.8,0-1.6,0.8-1.6,1.6
					C173.2,593.7,173.9,594.5,174.8,594.5z"/>
			</g>
		</g>
	</g>
	<g>
		<rect x="42.2" y="582.5" class="st1" width="32" height="32"/>
		<g>
			<path d="M58.2,612c-7.5,0-13.5-6.1-13.5-13.5c0-7.5,6-13.5,13.5-13.5c7.4,0,13.5,6,13.5,13.5C71.7,605.9,65.6,612,58.2,612z"/>
		</g>
		<g>
			<path class="st0" d="M56,598.6v7.8c0,0.1,0.1,0.2,0.2,0.2h3c0.1,0,0.2-0.1,0.2-0.2v-7.9h2.2c0.1,0,0.2-0.1,0.2-0.2l0.2-2.4
				c0-0.1-0.1-0.2-0.2-0.2h-2.3V594c0-0.4,0.3-0.8,0.8-0.8h1.6c0.1,0,0.2-0.1,0.2-0.2v-2.3c0-0.1-0.1-0.2-0.2-0.2h-2.7
				c-1.6,0-2.9,1.3-2.9,2.9v2.3h-1.5c-0.1,0-0.2,0.1-0.2,0.2v2.4c0,0.1,0.1,0.2,0.2,0.2L56,598.6L56,598.6z"/>
		</g>
	</g>
	<g>
		<rect x="407" y="582.5" class="st1" width="32" height="32"/>
		<path d="M423,585c-7.5,0-13.5,6-13.5,13.5c0,6,3.9,11,9.2,12.8c0.7,0.1,0.9-0.3,0.9-0.6s0-1.4,0-2.5c-3.4,0.6-4.3-0.8-4.5-1.6
			c-0.2-0.4-0.8-1.6-1.4-1.9c-0.5-0.3-1.1-0.9,0-0.9c1.1,0,1.8,1,2.1,1.4c1.2,2,3.2,1.5,3.9,1.1c0.1-0.9,0.5-1.5,0.9-1.8
			c-3-0.3-6.1-1.5-6.1-6.7c0-1.5,0.5-2.7,1.4-3.6c-0.1-0.3-0.6-1.7,0.1-3.6c0,0,1.1-0.4,3.7,1.4c1-0.3,2.2-0.5,3.3-0.5
			s2.3,0.2,3.4,0.5c2.6-1.8,3.7-1.4,3.7-1.4c0.7,1.9,0.3,3.2,0.1,3.6c0.9,0.9,1.4,2.1,1.4,3.6c0,5.2-3.2,6.3-6.2,6.7
			c0.5,0.4,0.9,1.2,0.9,2.5c0,1.8,0,3.3,0,3.7c0,0.4,0.3,0.8,0.9,0.6c5.5-1.9,9.2-7,9.2-12.8C436.5,591,430.5,585,423,585z"/>
	</g>
	<g>
		<rect x="285.4" y="582.5" class="st1" width="32" height="32"/>
		<path d="M301.4,612c-7.5,0-13.5-6.1-13.5-13.5c0-7.5,6-13.5,13.5-13.5c7.4,0,13.5,6,13.5,13.5C314.9,605.9,308.8,612,301.4,612z"
			/>
		<g>
			<path class="st0" d="M309.4,593.5c-0.5,0.2-1,0.3-1.6,0.5c0.2-0.1,0.6-0.5,0.8-0.7c0.2-0.3,0.5-0.6,0.5-0.9c0-0.1,0-0.1,0-0.1
				c-0.1,0-0.1,0-0.1,0c-0.6,0.3-1.2,0.5-1.9,0.8c-0.1,0-0.1,0-0.2-0.1c-0.1-0.1-0.1-0.1-0.2-0.2c-0.3-0.2-0.6-0.5-0.9-0.5
				c-0.5-0.2-0.9-0.2-1.4-0.2c-0.5,0.1-0.9,0.2-1.3,0.4c-0.4,0.2-0.8,0.5-1.1,0.9c-0.3,0.4-0.5,0.8-0.6,1.3c0,0.4,0,0.9,0,1.3
				c0,0.1,0,0.1-0.1,0.1c-2.5-0.4-4.8-1.3-6.5-3.3c-0.1-0.1-0.1-0.1-0.2,0c-0.8,1.2-0.4,2.9,0.5,3.9c0.2,0.1,0.2,0.2,0.4,0.3
				c-0.1,0-0.7-0.1-1.2-0.3c-0.1-0.1-0.1,0-0.1,0.1c0,0.1,0,0.2,0,0.4c0.2,1.2,0.9,2.2,2,2.7c0.2,0.1,0.3,0.1,0.4,0.2
				c-0.2-0.1-0.5,0-1.2-0.1c-0.1,0-0.1,0.1-0.1,0.1c0.5,1.5,1.7,1.9,2.5,2.2c0.1,0,0.2,0,0.3,0.1c-0.3,0.5-1.3,0.8-1.8,0.9
				c-0.7,0.2-1.7,0.3-2.6,0.2c-0.2,0-0.2,0-0.2,0c-0.1,0,0,0,0,0c0.2,0.1,0.3,0.2,0.5,0.3c0.6,0.3,1.2,0.5,1.8,0.7
				c3.2,0.9,6.8,0.2,9.3-2.2c1.9-1.9,2.5-4.5,2.5-7.1c0-0.1,0.1-0.2,0.2-0.2c0.5-0.3,0.9-0.8,1.2-1.3
				C309.4,593.7,309.4,593.6,309.4,593.5C309.4,593.4,309.4,593.5,309.4,593.5z"/>
		</g>
	</g>
	<g>
		<path class="st1" d="M1015.1,582.5h32v32h-32V582.5z"/>
		<path class="st2" d="M1024.7,610.5h-6.7c-0.2,0-0.4-0.2-0.4-0.4v-14.2c0-0.2,0.2-0.4,0.4-0.4h6.7c0.2,0,0.4,0.2,0.4,0.4v14.2
			C1025.1,610.3,1024.9,610.5,1024.7,610.5z M1025.1,597.3c1,0,3.4-2.2,4.4-4.1c1.2-2.3,2.4-5.1,2.6-5.7c0.2-0.6,0.6-1.5,2-1.5
			s2.2,0.6,2,2c-0.3,1.9-0.7,5-0.7,6.1c0,1.1,0.4,1.9,1,1.7c0.5-0.1,1.9-0.4,2.7-0.4c2.6,0,4.7,0.6,4.7,3c0,3.3-1.2,8.2-2,10
			c-0.8,1.8-2.1,2.6-4.7,2.6s-10.5-1.3-11.6-1.5"/>
	</g>
	<g>
		<path class="st1" d="M893.5,582.5h32v32h-32V582.5z"/>
		<path class="st3" d="M909.4,585.6c-0.3,0-0.4,0.2-0.5,0.4l-2.9,9h-9.4c-0.3,0-0.5,0.2-0.6,0.4c-0.1,0.3,0,0.5,0.2,0.7l7.6,5.5
			l-2.9,8.9c-0.1,0.3,0,0.5,0.2,0.7s0.5,0.2,0.7,0l7.6-5.5l7.6,5.5c0.2,0.2,0.5,0.2,0.7,0c0.2-0.2,0.3-0.4,0.2-0.7l-2.9-8.9l7.6-5.5
			c0.2-0.2,0.3-0.4,0.2-0.7c-0.1-0.3-0.3-0.4-0.6-0.4h-9.4l-2.9-9C909.8,585.8,909.6,585.6,909.4,585.6z"/>
	</g>
	<g>
		<path class="st1" d="M650.2,582.5h32v32h-32V582.5z"/>
		<path class="st2" d="M666.2,609.5L666.2,609.5c-0.6-0.3-13.5-6.2-13.5-13.6v-0.3c0-2.2,0.8-4.3,2.3-5.8s3.5-2.3,5.7-2.3
			c2.1,0,4,0.8,5.5,2.2c1.5-1.4,3.5-2.2,5.5-2.2c2.1,0,4.1,0.8,5.6,2.3c1.6,1.6,2.4,3.7,2.3,5.9v0.2
			C679.6,603.3,666.8,609.1,666.2,609.5L666.2,609.5z"/>
	</g>
</g>
<g>
	<g>
		<path class="st1" d="M771.9,136.7h32v32h-32V136.7z"/>
		<path class="st2" d="M787.9,165c-6.7,0-12.3-5.6-12.3-12.3s5.6-12.3,12.3-12.3c6.7,0,12.3,5.6,12.3,12.3S794.6,165,787.9,165z
			 M787.9,151.5v7.2 M787.9,146.7v2.5"/>
	</g>
	<g>
		<path class="st1" d="M528.6,136.7h32v32h-32V136.7z"/>
		<path class="st2" d="M553.8,166.3h-18.4c-0.9,0-1.6-0.7-1.6-1.6v-23.9c0-0.9,0.7-1.6,1.6-1.6h18.3c0.9,0,1.6,0.7,1.6,1.6v23.9
			C555.4,165.5,554.7,166.3,553.8,166.3z"/>
		<circle cx="544.6" cy="163.8" r="0.9"/>
		<path class="st2" d="M533.8,142.6h21.6 M555.4,161.5h-21.6"/>
	</g>
	<g>
		<path class="st1" d="M163.8,136.7h32v32h-32V136.7z"/>
		<path class="st2" d="M179.2,139.7h-12.4v26h26v-12.5 M182.7,149.6l9.6-9.4 M192.8,139.7v7.5 M192.8,139.7h-7.5"/>
	</g>
	<g>
		<path class="st1" d="M42.2,136.7h32v32h-32V136.7z"/>
		<circle class="st3" cx="47.7" cy="152.7" r="3"/>
		<circle class="st3" cx="68.7" cy="152.7" r="3"/>
		<circle class="st3" cx="58.2" cy="152.7" r="3"/>
	</g>
	<g>
		<path class="st1" d="M407,136.7h32v32h-32V136.7z"/>
		<path class="st2" d="M436.6,159.7v1.5c0,0.9-0.8,1.7-1.7,1.7h-23.8c-0.9,0-1.7-0.8-1.7-1.7v-1.5 M409.4,159.7h27.2 M412.4,159.7
			V144c0-0.8,0.7-1.5,1.5-1.5h18.2c0.8,0,1.5,0.7,1.5,1.5v15.7"/>
	</g>
	<g>
		<path class="st1" d="M285.4,136.7h32v32h-32V136.7z"/>
		<path class="st2" d="M313.3,160.1h-23.8c-0.9,0-1.7-0.8-1.7-1.7V144c0-0.9,0.8-1.7,1.7-1.7h23.7c0.9,0,1.7,0.8,1.7,1.7v14.3
			C315,159.3,314.2,160.1,313.3,160.1z M287.8,156.9H315 M297.1,160.1v3 M305.7,160.1v3 M294.3,163.1h14.2"/>
	</g>
	<g>
		<path class="st3" d="M1017.6,143.1h27v19.2h-27V143.1z"/>
		<path class="st3" d="M1017.6,147.3l13.5,7.9l13.5-7.9"/>
		<path class="st1" d="M1015.1,136.7h32v32h-32V136.7z"/>
	</g>
	<g>
		<path class="st1" d="M893.5,136.7h32v32h-32V136.7z"/>
		<path id="a_00000065035291975157771980000003311238175658984064_" class="st2" d="M909.5,139.2c-7.4,0-13.5,6.1-13.5,13.5
			c0,7.5,6.1,13.5,13.5,13.5c7.5,0,13.5-6.1,13.5-13.5C923,145.3,916.9,139.2,909.5,139.2z"/>
		<path d="M909.9,145.7c1,0,1.8,0.8,1.8,1.8c-0.1,1-0.8,1.8-1.8,1.8s-1.8-0.8-1.8-1.8C908.2,146.5,909,145.7,909.9,145.7z
			 M912.4,158.3c-0.5,1.9-5.7,2.1-5.3-0.5c0.2-1.8,0.6-3.4,0.9-5.1c0.2-1.1-0.5-0.8-1.2-1c-0.4-0.2-0.4-0.7,0.1-0.8
			c0.6-0.2,2.9-0.1,3.7-0.1c0.4,0,0.6,0.2,0.7,0.6c0,0.4-0.1,0.6-0.1,1c-0.3,1.6-0.7,3.4-0.9,5c0,0.4,0.1,1,0.6,0.9
			c0.5,0,0.8-0.2,1.2-0.4C912.3,157.8,912.5,158,912.4,158.3z"/>
	</g>
	<g>
		<path class="st1" d="M650.2,136.7h32v32h-32V136.7z"/>
		<path class="st4" d="M672.8,166.3h-13.2c-0.9,0-1.6-0.7-1.6-1.6v-23.9c0-0.9,0.7-1.6,1.6-1.6h13.1c0.9,0,1.6,0.7,1.6,1.6v23.9
			C674.4,165.5,673.7,166.3,672.8,166.3z"/>
		<circle cx="666.2" cy="163.8" r="0.9"/>
		<path class="st4" d="M658,142.6h16.4 M674.4,161.5H658"/>
	</g>
</g>
<g>
	<g>
		<path class="st1" d="M771.9,493.4h32v32h-32V493.4z"/>
		<path class="st2" d="M796.6,501h-5.3v-5.1L796.6,501z M781.9,500.3h6.6 M781.8,503.9l12.2-0.2 M781.8,507.3l12.2-0.1"/>
		<path class="st5" d="M792.6,520.6h4V501l-5.3-5.1h-12.1v24.7h8.7"/>
		<path class="st3" d="M787.9,517.6v5.3l2.4-2l2.3,2v-5.3"/>
		<circle class="st3" cx="790.3" cy="514.2" r="4.1"/>
	</g>
	<g>
		<path class="st1" d="M528.6,493.4h32v32h-32V493.4z"/>
		<path class="st2" d="M554.1,522.9h-19v-27h13.2l5.8,5.5V522.9z"/>
		<path class="st2" d="M554.1,501.4h-5.8v-5.5L554.1,501.4z M538.5,501.4h6.4 M538.5,505.2h12.3 M538.5,509h12.3"/>
	</g>
	<g>
		<path class="st1" d="M163.8,493.4h32v32h-32V493.4z"/>
		<path class="st2" d="M188.5,501c0,1.8-1.4,3.2-3.2,3.2c-1.8,0-3.2-1.4-3.2-3.2 M188.5,501c0-1.8-1.4-3.2-3.2-3.2
			c-1.8,0-3.2,1.4-3.2,3.2 M184.5,517.8c0,1.8-1.4,3.2-3.2,3.2s-3.2-1.4-3.2-3.2 M184.5,517.8c0-1.8-1.4-3.2-3.2-3.2
			s-3.2,1.4-3.2,3.2 M170.9,509.4h-4.7 M177.3,509.4h16.1 M182.1,501h-15.9 M188.5,501h4.9 M184.5,517.8h8.9 M178,517.8h-11.8
			 M177.3,509.4c0-1.8-1.4-3.2-3.2-3.2s-3.2,1.4-3.2,3.2 M177.3,509.4c0,1.8-1.4,3.2-3.2,3.2s-3.2-1.4-3.2-3.2"/>
	</g>
	<g>
		<path class="st1" d="M42.2,493.4h32v32h-32V493.4z"/>
		<path class="st3" d="M52.6,500.1h-4.9v22.8h16.1v-4.2"/>
		<path class="st3" d="M68.7,495.9H52.6v4.2h11.2v18.6h4.9L68.7,495.9z"/>
	</g>
	<g>
		<path class="st1" d="M407,493.4h32v32h-32V493.4z"/>
		<path class="st3" d="M432.9,522.8l-9.9-8.4l-9.9,8.5v-27H433v3.5 M433,507.4v-5 M433,510.4v12.4 M430.5,504.9h5"/>
	</g>
	<g>
		<path class="st1" d="M285.4,493.4h32v32h-32V493.4z"/>
		<path class="st2" d="M309.4,500.4v-4.5h-16v6.5 M309.4,516.9h5.6v-14.5h-27.1v14.5h5.5"/>
		<path class="st2" d="M293.4,511.9h16v11h-16V511.9z M311.4,506.4h-2 M305.9,515.9h-9 M302.9,518.9h-6"/>
	</g>
	<g>
		<path class="st1" d="M1015.1,493.4h32v32h-32V493.4z"/>
		<path class="st2" d="M1032.4,520.3h-11.2v-24.4h11.9l5.3,5v13.4"/>
		<path class="st2" d="M1038.4,500.9h-5.3v-5L1038.4,500.9z M1023.8,500.3h6.6 M1023.8,503.8l12-0.2 M1023.8,507.2l12-0.1
			 M1023.8,510.6l12.1-0.1 M1036.4,513.8c-2.5,0-4.5,2-4.5,4.5s2,4.5,4.5,4.5s4.5-2,4.5-4.5C1041,515.9,1038.9,513.8,1036.4,513.8z"
			/>
		<path class="st2" d="M1038.3,517.1l-2.5,2.5l-1.1-1.1"/>
	</g>
	<g>
		<path class="st1" d="M893.5,493.4h32v32h-32V493.4z"/>
		<g>
			<path id="a_00000175315842459019088280000003426443316008492977_" class="st2" d="M896,522.7v-19h4.9"/>
			<path id="b_00000056428507498849473300000003032810186338111136_" class="st2" d="M920.1,522.7H896l2.7-15.4H923L920.1,522.7z"/>
			<g>
				<path id="a_00000085212016147458640090000008174876884575394949_" class="st2" d="M896,522.7v-19h4.9"/>
			</g>
			<g>
				<path id="b_00000067235086802036000100000005034581240020721545_" class="st2" d="M920.1,522.7H896l2.7-15.4H923L920.1,522.7z"
					/>
			</g>
			<g>
				<path id="a_00000016756547511180468040000003933450897770491039_" class="st2" d="M896,522.7v-19h4.9"/>
			</g>
			<g>
				<path id="b_00000086687551812128015060000001413263973802328198_" class="st2" d="M920.1,522.7H896l2.7-15.4H923L920.1,522.7z"
					/>
			</g>
			<path class="st2" d="M900.9,507.3V496h11.9l5.3,5v6.3"/>
			<path class="st2" d="M918.1,501h-5.3v-5L918.1,501z M903.5,503.9h12 M903.5,507.3h12 M903.5,500.4h6.6"/>
		</g>
	</g>
	<g>
		<path class="st1" d="M650.2,493.4h32v32h-32V493.4z"/>
		<path class="st2" d="M659.6,498.1H656v24.8h17.5v-3.1"/>
		<path class="st2" d="M676.4,519.8h-16.8v-23.9h11.6l5.2,4.9V519.8z"/>
		<path class="st2" d="M676.4,500.8h-5.2v-4.9L676.4,500.8z M663.1,500.2h4.6 M663.1,506.9h9.8 M663.1,510.2h9.8 M663.1,503.6h9.8"
			/>
	</g>
</g>
<g>
	<g>
		<path class="st1" d="M771.9,225.9h32v32h-32V225.9z"/>
		<path class="st2" d="M801.3,255.4h-26.8 M793.1,236.7v3.8l3.9-1.9L793.1,236.7z"/>
		<path class="st2" d="M801.3,228.4h-26.8v20.4h5.1v-2.7h-1.9v-2.2h14.4v2.2h-1.9v2.7h11.1V228.4z M779.6,248.8v6.5
			c0,0,0,0.1,0.1,0.1h10.5v-6.6"/>
		<path class="st2" d="M790.2,247.8v-1.7h-10.6v1.7"/>
		<circle class="st2" cx="784.9" cy="235" r="2.4"/>
		<path class="st2" d="M789.1,241.2c0-1.1-0.9-1.9-1.9-1.9h-4.5c-1.1,0-1.9,0.9-1.9,1.9v2.7h8.3V241.2z"/>
	</g>
	<g>
		<path class="st1" d="M528.6,225.9h32v32h-32V225.9z"/>
		<path class="st2" d="M544.6,228.4v23.1 M537.3,244.2l7.3,7.3 M551.9,244.2l-7.3,7.3 M540.6,239.5h-9.5v15.9h27v-15.9h-9.5"/>
	</g>
	<g>
		<path class="st1" d="M163.8,225.9h32v32h-32V225.9z"/>
		<path class="st2" d="M181,254.2c1.2-1.2,2.4-2.5,3.5-3.9c2.6-3.3,4.4-6.5,4.9-9.5c0.1-0.6,0.2-1.2,0.2-1.8
			c0-5.7-4.4-10.4-9.8-10.4c-5.4,0-9.8,4.7-9.8,10.4c0,0.6,0.1,1.2,0.2,1.8c0.5,3,2.3,6.2,4.9,9.5c1.1,1.4,2.3,2.7,3.5,3.9
			c0.4,0.4,0.8,0.8,1.2,1.1C180.2,255,180.6,254.6,181,254.2z M179.8,242.9c-2.5,0-4.6-2.1-4.6-4.6s2.1-4.6,4.6-4.6s4.6,2.1,4.6,4.6
			S182.3,242.9,179.8,242.9z"/>
	</g>
	<g>
		<rect x="42.2" y="225.9" class="st1" width="32" height="32"/>
		<path class="st2" d="M58.2,228.4l-13.5,10.1v16.9h9.1v-11.5h8.8v11.5h9.1v-16.9L58.2,228.4z"/>
	</g>
	<path class="st2" d="M423,235.4v12.5 M416.6,241.5l6.4,6.4 M429.4,241.5l-6.4,6.4 M423,228.4c-7.4,0-13.5,6.1-13.5,13.5
		c0,7.5,6.1,13.5,13.5,13.5c7.5,0,13.5-6.1,13.5-13.5S430.4,228.4,423,228.4z"/>
	<g>
		<path class="st1" d="M285.4,225.9h32v32h-32V225.9z"/>
		<path class="st2" d="M302,243.8c1.6-1,2.6-2.7,2.6-4.7c0-3.1-2.5-5.6-5.6-5.6h-5.5c-3.1,0-5.6,2.5-5.6,5.6c0,3.1,2.5,5.6,5.6,5.6
			h0.9"/>
		<path class="st2" d="M300.8,240c-1.6,1-2.6,2.7-2.6,4.7c0,3.1,2.5,5.6,5.6,5.6h5.6c3.1,0,5.6-2.5,5.6-5.6c0-3.1-2.5-5.6-5.6-5.6
			h-1"/>
	</g>
	<g>
		<path class="st1" d="M1015.1,225.9h32v32h-32V225.9z"/>
		<path class="st2" d="M1031.1,238.7v6.4 M1021.3,245.1v-3.2h19.6v3.2"/>
		<path class="st2" d="M1027.7,245.1h6.8v6.8h-6.8V245.1z M1027.7,231.9h6.8v6.8h-6.8V231.9z M1037.8,245.1h6.8v6.8h-6.8V245.1z
			 M1017.6,245.1h6.8v6.8h-6.8V245.1z"/>
	</g>
	<g>
		<path class="st1" d="M893.5,225.9h32v32h-32V225.9z"/>
		<path class="st2" d="M914.7,240v3.8l3.9-1.9L914.7,240z"/>
		<path class="st2" d="M922.9,231.7h-26.8v20.4h3.2v-4.6h14.4v4.6h9.2V231.7z"/>
		<circle class="st2" cx="906.5" cy="238.7" r="2.4"/>
		<path class="st2" d="M910.7,244.8c0-1.1-0.9-1.9-1.9-1.9h-4.5c-1.1,0-1.9,0.9-1.9,1.9v2.7h8.3V244.8z M899.3,252.1h14.4"/>
	</g>
	<g>
		<path class="st1" d="M650.2,225.9h32v32h-32V225.9z"/>
		<g>
			<path class="st2" d="M656.5,239.9c-2,5.4,0.8,11.3,6.2,13.3c5.4,2,11.3-0.8,13.3-6.2c2-5.4-0.9-11.3-6.2-13.3
				c-1.9-0.7-4.2-0.7-6.2-0.3"/>
			<path class="st2" d="M668.4,228l-5.6,5.4l5.9,4.9"/>
		</g>
	</g>
</g>
<g>
	<g>
		<path class="st1" d="M771.9,404.2h32v32h-32V404.2z"/>
		<path class="st2" d="M773.9,431.7h28v2.5h-28V431.7z M795.6,406.2l6,7.7l-5.3,4.1l-6-7.7L795.6,406.2z"/>
		<path class="st2" d="M796.4,418l-6-7.7l-14.3,11.1l-2,7.8l8.1-0.1L796.4,418z"/>
	</g>
	<g>
		<path class="st1" d="M528.6,404.2h32v32h-32V404.2z"/>
		<path class="st2" d="M534.6,418v11.6 M539.6,418v11.6 M544.6,418v11.6 M549.6,418v11.6 M554.6,418v11.6"/>
		<circle cx="544.6" cy="411.1" r="1.5"/>
		<path class="st2" d="M556.7,414.6h-24.2l12.1-7.8L556.7,414.6z M531.2,414.6H558v3.3h-26.8V414.6z M531.2,429.6H558v3.3h-26.8
			V429.6z"/>
	</g>
	<g>
		<path class="st1" d="M163.8,404.2h32v32h-32V404.2z"/>
		<path class="st2" d="M175.6,433.5v-13.2h-4.1"/>
		<circle cx="170.3" cy="420.3" r="1.3"/>
		<circle cx="175.1" cy="413.8" r="1.3"/>
		<circle cx="188.7" cy="415.6" r="1.3"/>
		<circle cx="188.7" cy="422.7" r="1.3"/>
		<circle class="st2" cx="179.8" cy="420.2" r="14"/>
		<path class="st2" d="M176.3,413.8h5.1v20.3"/>
		<path class="st2" d="M166.2,417.1h12.4v17 M187.4,422.7H184v10.8 M187.4,415.6H184v-8.7"/>
	</g>
	<g>
		<path class="st1" d="M42.2,404.2h32v32h-32V404.2z"/>
		<path class="st2" d="M69.4,434.2H47c-1.6,0-2.8-1.2-2.8-2.8V409c0-1.6,1.2-2.8,2.8-2.8h22.5c1.5,0,2.7,1.2,2.7,2.8v22.5
			C72.2,433,71,434.2,69.4,434.2z"/>
		<path class="st2" d="M62.7,425.8h-9.1c-0.6,0-1.1-0.5-1.1-1.1v-9.1c0-0.6,0.5-1.1,1.1-1.1h9.1c0.6,0,1.1,0.5,1.1,1.1v9.1
			C63.8,425.3,63.3,425.8,62.7,425.8z M55.6,414.6v-3.5 M58.2,414.6v-3.5 M60.7,414.6v-3.5 M55.6,429.3v-3.5 M58.2,429.3v-3.5
			 M60.7,429.3v-3.5 M52.5,422.7h-3.4 M52.5,420.2h-3.4 M52.5,417.7h-3.4 M67.3,422.7h-3.5 M67.3,420.2h-3.5 M67.3,417.7h-3.5"/>
	</g>
	<g>
		<path class="st1" d="M407,404.2h32v32h-32V404.2z"/>
		<path class="st2" d="M409.5,409.9v20.6h27"/>
		<path class="st2" d="M428.6,415.9h4.7v14.6h-4.7V415.9z M420.7,420.2h4.7v10.3h-4.7V420.2z M412.7,413.1h4.7v17.4h-4.7V413.1z"/>
	</g>
	<g>
		<path class="st1" d="M285.4,404.2h32v32h-32V404.2z"/>
		<path class="st2" d="M313.3,413.6l-11.7-6.8l-12.1,6.8v12.6l12.4,7.4l11.4-7.4v-6.4V413.6z M301.6,406.8l0.3,26.8 M289.5,426.2
			l23.8-12.6 M289.5,413.6l23.8,12.6"/>
	</g>
	<g>
		<path class="st1" d="M1015.1,404.2h32v32h-32V404.2z"/>
		<path class="st3" d="M1044.5,422.7v-5.1h-3.7c-0.2-0.9-0.6-1.8-1.1-2.6l2.6-2.6l-3.6-3.6l-2.6,2.6c-0.8-0.5-1.7-0.8-2.6-1.1v-3.6
			h-5.1v3.7c-0.9,0.2-1.8,0.6-2.6,1.1l-2.4-2.7l-3.7,3.7l2.6,2.6c-0.5,0.8-0.8,1.7-1.1,2.6h-3.6v5.1h3.7c0.2,0.9,0.6,1.8,1.1,2.6
			l-2.6,2.6l3.6,3.6l2.6-2.6c0.8,0.5,1.7,0.8,2.6,1.1v3.7h5.1v-3.7c0.9-0.2,1.8-0.6,2.6-1.1l2.6,2.6l3.6-3.6l-2.6-2.6
			c0.5-0.8,0.8-1.7,1.1-2.6h3.5V422.7z M1031.1,425.1c-2.8,0-5-2.2-5-4.9c0-2.8,2.2-5,5-5c2.7,0,4.9,2.2,4.9,4.9
			C1036,422.9,1033.8,425.1,1031.1,425.1z"/>
	</g>
	<g>
		<path class="st1" d="M893.5,404.2h32v32h-32V404.2z"/>
		<path class="st3" d="M904.6,422.5v11.2l4.9-4.2l4.9,4.2v-11.2"/>
		<circle class="st3" cx="909.5" cy="415.4" r="8.7"/>
	</g>
	<g>
		<path class="st1" d="M650.2,404.2h32v32h-32V404.2z"/>
		<path class="st2" d="M659.3,421.3v7.2l0.4,0.2c4.2,1.7,8.9,1.7,13,0l0.4-0.2v-7.2"/>
		<path class="st2" d="M666.2,410.5l-13.5,7.3l13.5,7.3l13.5-7.3L666.2,410.5z"/>
		<path class="st2" d="M666.2,417.8l10.7,1.1v5.9"/>
	</g>
</g>
<g>
	<g>
		<path class="st1" d="M771.9,315h32v32h-32V315z"/>
		<path class="st3" d="M795.1,338.2l6,6 M786.6,317.8c-6.5,0-11.9,5.4-11.9,11.9c0,6.6,5.4,12,11.9,12c6.6,0,12-5.4,12-12
			C798.7,323.2,793.3,317.8,786.6,317.8z"/>
		<path class="st3" d="M778.2,329.8h3.8l1.9-3.9l2.8,7.8l2.7-5.9l1,2h4.7"/>
	</g>
	<g>
		<path class="st1" d="M528.6,315h32v32h-32V315z"/>
		<path class="st2" d="M531.1,317.5v27h27L531.1,317.5z M536,325.6l1.5-1.5 M540.7,330.2l1.4-1.4 M545.4,334.9l1.4-1.4 M550,339.6
			l1.5-1.5 M534.1,322.8l1-1.1 M538.8,327.5l1-1.1 M543.4,332.2l1.1-1.1 M548.1,336.8l1.1-1 M552.8,341.5l1.1-1"/>
		<path class="st2" d="M536.6,331l8,8h-8V331"/>
	</g>
	<g>
		<path class="st1" d="M163.8,315h32v32h-32V315z"/>
		<path class="st6" d="M173.4,334.9h-6.3v-12.5h6.3 M186.2,322.4h6.3v12.5h-6.3 M173.4,317.5h12.8v17.4h-12.8V317.5z M179.8,334.9
			v2.6 M188.3,337.5h-17 M179.8,337.6v2.1 M188.3,337.6v2.1 M171.3,337.6v2.1"/>
		<circle cx="179.8" cy="342.1" r="2.3"/>
		<circle cx="188.3" cy="342.1" r="2.3"/>
		<circle cx="171.3" cy="342.1" r="2.3"/>
		<path d="M176.2,329.4h7.2v5.5h-7.2V329.4z M169.2,325.3h2v2h-2V325.3z M169.2,329.4h2v2h-2V329.4z M188.4,325.3h2v2h-2V325.3z
			 M188.4,329.4h2v2h-2V329.4z M176.2,321.2h7.2v2h-7.2V321.2z M176.2,325.3h7.2v2h-7.2V325.3z"/>
	</g>
	<g>
		<path class="st1" d="M42.2,315h32v32h-32V315z"/>
		<circle class="st2" cx="58.2" cy="331" r="3.2"/>
		<path class="st2" d="M49.9,320.7h18.2c2,0,3.7,1.7,3.6,3.7v2.8c0,2-1.3,3.7-2.8,3.7H64 M55.1,330.9h-6.6c-2,0-3.7,1.6-3.7,3.6v3.1
			c0,2,1.5,3.7,3.4,3.7H63"/>
		<path class="st2" d="M65.4,332.5l-1.6-1.6l1.6-1.6 M65.4,338.1h6.3v6.3h-6.3V338.1z M48.2,317.6l3.4,6.3h-6.9L48.2,317.6z
			 M61.5,339.7l1.6,1.6l-1.6,1.6"/>
	</g>
	<g>
		<path class="st1" d="M407,315h32v32h-32V315z"/>
		<circle class="st2" cx="423" cy="329.6" r="2.9"/>
		<circle class="st2" cx="412.4" cy="320.4" r="2.9"/>
		<path class="st2" d="M419.3,338v-1.9c0-2,1.7-3.7,3.7-3.7s3.7,1.7,3.7,3.7v1.9 M417.4,336.6l-2.9,2.9 M431.5,322.5l-2.9,2.9
			 M417.4,325.4l-2.9-2.9 M431.5,339.5l-2.9-2.9"/>
		<circle class="st2" cx="423" cy="331" r="7.9"/>
		<circle class="st2" cx="412.4" cy="320.4" r="2.9"/>
		<circle class="st2" cx="433.6" cy="320.4" r="2.9"/>
		<circle class="st2" cx="433.6" cy="341.6" r="2.9"/>
		<circle class="st2" cx="412.4" cy="341.6" r="2.9"/>
	</g>
	<g>
		<path class="st1" d="M285.4,315h32v32h-32V315z"/>
		<path class="st3" d="M287.8,324.2h6.7v18h-6.7V324.2z M308.2,324.2h6.7v18h-6.7V324.2z M294.6,319.8h13.6v22.4h-13.6V319.8z"/>
		<path d="M297.5,336.3h7.7v5.9h-7.7V336.3z M290.1,331.9h2.1v2.1h-2.1V331.9z M290.1,336.3h2.1v2.1h-2.1V336.3z M290.1,327.5h2.1
			v2.1h-2.1V327.5z M310.6,331.9h2.1v2.1h-2.1V331.9z M310.6,336.3h2.1v2.1h-2.1V336.3z M310.6,327.5h2.1v2.1h-2.1V327.5z
			 M297.5,327.5h7.7v2.1h-7.7V327.5z M297.5,331.9h7.7v2.1h-7.7V331.9z M297.5,323.1h7.7v2.1h-7.7V323.1z"/>
	</g>
	<g>
		<path class="st1" d="M1015.1,315h32v32h-32V315z"/>
		<ellipse class="st3" cx="1031.1" cy="322.9" rx="13.2" ry="5.9"/>
		<path class="st3" d="M1044.3,328.3c0,3.2-5.9,5.9-13.2,5.9c-7.3,0-13.2-2.7-13.2-5.9"/>
		<path class="st3" d="M1044.3,333.7c0,3.2-5.9,5.9-13.2,5.9c-7.3,0-13.2-2.7-13.2-5.9"/>
		<path class="st3" d="M1017.9,322.9c0,3.2,5.9,5.9,13.2,5.9c7.3,0,13.2-2.6,13.2-5.9v16.3c0,3.2-5.9,5.9-13.2,5.9
			c-7.3,0-13.2-2.7-13.2-6V322.9z"/>
		<circle cx="1037.8" cy="330.6" r="1.2"/>
		<circle cx="1037.8" cy="336" r="1.2"/>
		<circle cx="1037.8" cy="341.5" r="1.2"/>
	</g>
	<g>
		<path class="st1" d="M893.5,315h32v32h-32V315z"/>
		<path class="st3" d="M910.7,341.9h-12.3c-1.3,0-2.4-1.1-2.4-2.4v-19.6c0-1.3,1.1-2.4,2.4-2.4H918c1.3,0,2.4,1.1,2.4,2.4v12.2
			 M920.4,323.9H896 M920.4,323.9H896"/>
		<circle cx="899.7" cy="320.7" r="1.1"/>
		<circle cx="904.5" cy="320.7" r="1.1"/>
		<circle cx="909.2" cy="320.7" r="1.1"/>
		<path d="M923,338.9v-2.6h-1.9c-0.1-0.5-0.3-0.9-0.5-1.3l1.3-1.3l-1.8-1.8l-1.3,1.3c-0.4-0.2-0.8-0.4-1.3-0.5v-1.9h-2.6v1.9
			c-0.5,0.1-0.9,0.3-1.3,0.5l-1.3-1.3l-1.8,1.8l1.3,1.3c-0.2,0.4-0.4,0.8-0.5,1.3h-1.9v2.6h1.9c0.1,0.5,0.3,0.9,0.5,1.3l-1.3,1.3
			l1.8,1.8l1.2-1.3c0.4,0.2,0.8,0.4,1.3,0.5v1.9h2.6v-1.9c0.5-0.1,0.9-0.3,1.3-0.5l1.3,1.3l1.8-1.8l-1.3-1.3
			c0.2-0.4,0.4-0.8,0.5-1.3H923z M916.1,340.1c-1.4,0-2.5-1.1-2.5-2.5s1.1-2.5,2.5-2.5s2.5,1.1,2.5,2.5S917.5,340.1,916.1,340.1z"/>
	</g>
	<g>
		<path class="st1" d="M650.2,315h32v32h-32V315z"/>
		<path class="st2" d="M669.4,329.2c0.7,0,1.4-0.3,2-0.7l3.1,1.3l2.2-3.9l-8-5.9v-3c-2,0-3.5,1.5-3.5,3.4v0.1
			c-3.7,1.4-6.3,4.9-6.3,9v13.1h-3.1v2.4h18.4v-2.3h-2.8l-2.8-13.5H669.4z"/>
	</g>
</g>
<g>
	<g>
		<path class="st1" d="M771.9,47.6h32v32h-32V47.6z"/>
		<path class="st2" d="M787.9,49.6c-7.7,0-14,6.3-14,14s6.3,14,14,14c7.7,0,14-6.3,14-14S795.6,49.6,787.9,49.6z M792.8,58.7
			l-9.8,9.8 M783,58.7l9.8,9.8"/>
	</g>
	<g>
		<path class="st1" d="M528.6,47.6h32v32h-32V47.6z"/>
		<path class="st2" d="M538.2,63.6H551 M544.6,50.1c-7.4,0-13.5,6.1-13.5,13.5c0,7.5,6.1,13.5,13.5,13.5c7.5,0,13.5-6.1,13.5-13.5
			S552,50.1,544.6,50.1z"/>
	</g>
	<g>
		<path class="st1" d="M163.8,47.6h32v32h-32V47.6z"/>
		<path class="st2" d="M179.8,50.1c-7.4,0-13.5,6.1-13.5,13.5c0,7.5,6.1,13.5,13.5,13.5c7.5,0,13.5-6.1,13.5-13.5
			S187.2,50.1,179.8,50.1z"/>
		<path d="M174.8,58.6h4v10h-4V58.6z M180.8,58.6h4v10h-4V58.6z"/>
	</g>
	<g>
		<path class="st1" d="M42.2,47.6h32v32h-32V47.6z"/>
		<path id="a_00000145046240426006230350000017083888899634727321_" class="st2" d="M58.2,50.1c-7.4,0-13.5,6.1-13.5,13.5
			c0,7.5,6.1,13.5,13.5,13.5c7.5,0,13.5-6.1,13.5-13.5S65.6,50.1,58.2,50.1z"/>
		<path d="M53.8,68.2v-9.3c0-0.4,0.4-0.6,0.8-0.4l7.9,4.6c0.3,0.2,0.3,0.7,0,0.9l-7.9,4.6C54.2,68.9,53.8,68.6,53.8,68.2z"/>
	</g>
	<g>
		<path class="st1" d="M407,47.6h32v32h-32V47.6z"/>
		<path class="st2" d="M416.6,63.6h12.8 M423,50.1c-7.4,0-13.5,6.1-13.5,13.5c0,7.5,6.1,13.5,13.5,13.5c7.5,0,13.5-6.1,13.5-13.5
			S430.4,50.1,423,50.1z M423,70V57.2"/>
	</g>
	<g>
		<path class="st1" d="M285.4,47.6h32v32h-32V47.6z"/>
		<path id="a_00000162313042707336528680000010315442308303005571_" class="st3" d="M301.4,50.1c-7.4,0-13.5,6.1-13.5,13.5
			c0,7.5,6.1,13.5,13.5,13.5c7.5,0,13.5-6.1,13.5-13.5S308.8,50.1,301.4,50.1z"/>
		<path d="M296.4,58.6h10v10h-10V58.6z"/>
	</g>
	<g>
		<path class="st1" d="M1015.1,47.6h32v32h-32V47.6z"/>
		<path class="st2" d="M1038.3,70.8l6,6 M1024.2,62.4h11.4 M1029.8,50.4c-6.5,0-11.9,5.4-11.9,11.9c0,6.6,5.4,12,11.9,12
			c6.6,0,12-5.4,12-12C1041.9,55.8,1036.5,50.4,1029.8,50.4z M1029.9,68.1V56.7"/>
	</g>
	<g>
		<path class="st1" d="M893.5,47.6h32v32h-32V47.6z"/>
		<path class="st2" d="M916.1,70.2l6.6,6.6 M902.4,62h11 M907.9,50.4c-6.4,0-11.6,5.2-11.6,11.6s5.2,11.6,11.6,11.6
			c6.4,0,11.6-5.2,11.6-11.6S914.3,50.4,907.9,50.4z"/>
	</g>
	<g>
		<rect x="650.2" y="47.6" class="st1" width="32" height="32"/>
		<circle class="st7" cx="666.2" cy="63.6" r="13.5"/>
		<path class="st7" d="M660.6,64l3.5,3.5l7.7-7.7"/>
	</g>
</g>
</svg>
