<?xml version="1.0" encoding="utf-8"?>
<!-- Generator: Adobe Illustrator 27.2.0, SVG Export Plug-In . SVG Version: 6.00 Build 0)  -->
<svg version="1.1" id="Layer_1" xmlns="http://www.w3.org/2000/svg" xmlns:xlink="http://www.w3.org/1999/xlink" x="0px" y="0px"
	 viewBox="0 0 550.1 707.9" style="enable-background:new 0 0 550.1 707.9;" xml:space="preserve">
<style type="text/css">
	.st0{fill:#F5F5F5;}
	.st1{fill:none;}
	.st2{font-family:'OpenSans-Regular';}
	.st3{font-size:30.781px;}
	.st4{font-size:28.781px;}
	.st5{font-family:'OpenSans-SemiBold';}
	.st6{font-size:15px;}
	.st7{font-family:'OpenSans-Italic';}
	.st8{font-size:21.8389px;}
	.st9{fill:none;stroke:#2F2E33;stroke-width:0.7273;stroke-miterlimit:10;}
	.st10{font-size:238.2081px;}
	.st11{font-size:11.3905px;}
</style>
<rect class="st0" width="550.1" height="707.9"/>
<rect x="33.6" y="53.6" class="st1" width="267" height="212.9"/>
<text transform="matrix(1 0 0 1 33.6029 76.9776)" class="st2 st3">ABCDEFGHIJKLMN</text>
<text transform="matrix(1 0 0 1 33.6029 113.8776)" class="st2 st3">OPQRSTUVWXYZ</text>
<text transform="matrix(1 0 0 1 33.6029 150.8776)" class="st2 st3">abcdefghijklmn</text>
<text transform="matrix(1 0 0 1 33.6029 187.7776)" class="st2 st3">opqrstuvwxyz</text>
<text transform="matrix(1 0 0 1 33.6029 224.6776)" class="st2 st3">0123456789</text>
<text transform="matrix(1 0 0 1 33.6029 261.6776)" class="st2 st3">(&amp;.,:;!?\/[]{}”</text>
<rect x="33.6" y="533" class="st1" width="283" height="134.5"/>
<text transform="matrix(1 0 0 1 33.6029 554.9224)" class="st2 st4">Metoder</text>
<text transform="matrix(1 0 0 1 33.6029 592.4224)" class="st2 st4">Metadata</text>
<text transform="matrix(1 0 0 1 33.6029 629.9224)" class="st2 st4">Brugerstyring</text>
<text transform="matrix(1 0 0 1 33.6029 667.4224)" class="st2 st4">Arkitektur</text>
<g>
	<rect x="339" y="533" class="st1" width="182.2" height="23.5"/>
	<text transform="matrix(1 0 0 1 338.9742 544.0687)" class="st5 st6">«Referencearkitekturer»</text>
</g>
<rect x="339" y="53.6" class="st1" width="172.4" height="151.1"/>
<text transform="matrix(1 0 0 1 338.9742 70.1817)" class="st7 st8">ABCDEFGHIJKLMN</text>
<text transform="matrix(1 0 0 1 338.9742 96.3817)" class="st7 st8">OPQRSTUVWXYZ</text>
<text transform="matrix(1 0 0 1 338.9742 122.5817)" class="st7 st8">abcdefghijklmn</text>
<text transform="matrix(1 0 0 1 338.9742 148.7817)" class="st7 st8">opqrstuvwxyz</text>
<text transform="matrix(1 0 0 1 338.9742 174.9817)" class="st7 st8">0123456789</text>
<text transform="matrix(1 0 0 1 338.9742 201.1817)" class="st7 st8">(&amp;.,:;!?\/[]{}”</text>
<line class="st9" x1="33.6" y1="33.6" x2="516.5" y2="33.6"/>
<text transform="matrix(1 0 0 1 33.6031 491.45)" class="st2 st10">Aa</text>
<rect x="339" y="560.6" class="st1" width="182.2" height="106.9"/>
<text transform="matrix(1 0 0 1 338.9742 569.3047)" class="st2 st11">En vigtig del af arbejdet med den </text>
<text transform="matrix(1 0 0 1 338.9742 588.5047)" class="st2 st11">fællesoffentlige digitale arkitektur </text>
<text transform="matrix(1 0 0 1 338.9742 607.7047)" class="st2 st11">er fælles krav til dokumentation af </text>
<text transform="matrix(1 0 0 1 338.9742 626.9047)" class="st2 st11">arkitektur og data. Det vil sige </text>
<text transform="matrix(1 0 0 1 338.9742 646.1047)" class="st2 st11">konceptuelle og logiske </text>
<text transform="matrix(1 0 0 1 338.9742 665.3047)" class="st2 st11">højniveau-arkitekturbeskrivelser.</text>
</svg>
