<?xml version="1.0" encoding="utf-8"?>
<!-- Generator: Adobe Illustrator 27.2.0, SVG Export Plug-In . SVG Version: 6.00 Build 0)  -->
<svg version="1.1" id="Layer_1" xmlns="http://www.w3.org/2000/svg" xmlns:xlink="http://www.w3.org/1999/xlink" x="0px" y="0px"
	 viewBox="0 0 705.6 522.3" style="enable-background:new 0 0 705.6 522.3;" xml:space="preserve">
<style type="text/css">
	.st0{fill:none;stroke:#000000;stroke-width:40;stroke-linecap:round;stroke-linejoin:round;stroke-miterlimit:10;}
</style>
<g>
	<path class="st0" d="M407.5,120.1c28.3,25,39.3,156,16.7,377.5"/>
	<path class="st0" d="M351.8,96.9c6.1-30.9,39-76.9,80.5-76.9s83.4,31.6,88.3,86.8c4.9,55.2-18.8,131.6-109,120.7
		c90.2,10.9,274,44.4,274,139.2S466.1,484,404.1,485.1"/>
	<path class="st0" d="M64.9,123.8c52-14.9,161.3-46.7,231.3-95c-1.5,54.8,13.3,266.4,19.2,356.6s-40,116.9-77,116.9
		s-118.3,3.3-218.4-109"/>
</g>
</svg>
