<?xml version="1.0" encoding="UTF-8"?>
<svg id="Layer_1" data-name="Layer 1" xmlns="http://www.w3.org/2000/svg" width="1200" height="630" viewBox="0 0 1200 630">
  <defs>
    <style>
      .cls-1 {
        fill: #001862;
      }

      .cls-2 {
        fill: #f1ebe8;
      }
    </style>
  </defs>
  <rect class="cls-2" width="1200" height="630"/>
  <g>
    <path class="cls-1" d="m419.86,282.84c21.25,0,38.61-17.36,38.61-38.61s-17.36-38.61-38.61-38.61-38.61,17.36-38.61,38.61,17.36,38.61,38.61,38.61Zm0-64.35c14.29,0,25.74,11.45,25.74,25.74s-11.45,25.74-25.74,25.74-25.74-11.45-25.74-25.74,11.45-25.74,25.74-25.74Z"/>
    <path class="cls-1" d="m818.84,167.01h-321.76c-.4-.04-.81-.04-1.21,0-3.08.59-5.28,3.3-5.23,6.44v98.54c-5.93,1.84-10.87,3.29-17.09,5.23-15.33,4.79-30.77,9.66-42.43,13.27-5.83,1.81-10.77,3.35-14.28,4.42-1.75.54-3.04.91-4.02,1.21-.49.15-.96.33-1.21.4-20.99,3.85-36.8,22.2-36.8,44.24v115.32c-.01.15-.09.27-.09.42-.05,3.55,2.79,6.48,6.34,6.53.06,0,.12,0,.18,0h77.22c3.55,0,6.43-2.88,6.44-6.44v-99.14c1.65-.96,15.69-9.19,25.74-15.08v24.13c0,3.55,2.88,6.43,6.44,6.44h321.76c3.55,0,6.43-2.88,6.44-6.44v-193.05c0-3.55-2.88-6.44-6.44-6.44Zm-363.58,180.99c-2.01,1.16-3.24,3.31-3.22,5.63v96.53h-64.35v-109.4c0-15.91,11.34-28.82,26.34-31.57.95-.17.66-.31,1.01-.4.34-.1.89-.25,1.41-.4,1.04-.31,2.45-.67,4.22-1.21,3.54-1.08,8.44-2.61,14.28-4.42,11.68-3.62,27.1-8.49,42.43-13.27,15.33-4.79,30.66-9.46,42.23-13.07,5.78-1.81,10.63-3.35,14.08-4.42,1.72-.54,3.06-.91,4.02-1.21.48-.15.75-.33,1.01-.4.25-.08.81-.15.2,0,1-.25,2.06-.4,3.22-.4,7.18,0,12.87,5.69,12.87,12.87,0,3.87-1.86,7.27-4.63,9.65-.07.06-.13.14-.2.2-.09.05-.1.14-.2.2-.71.42-1.69,1.03-3.02,1.81-2.65,1.55-6.56,3.6-11.06,6.23-9.01,5.26-21.02,12.34-32.98,19.31-23.92,13.94-47.66,27.75-47.66,27.75Zm357.15,12.07h-308.89v-25.14c2.9-1.69,3-1.85,6.03-3.62,11.96-6.97,23.97-13.84,32.98-19.1,4.51-2.63,8.2-4.88,10.86-6.44,1.33-.78,2.28-1.38,3.02-1.81.37-.22.79-.47,1.01-.6.11-.06.11-.15.2-.2.04-.03.13.04.2,0,.07-.05.6-.6.6-.6,5.66-4.69,9.45-11.73,9.45-19.71,0-2.21-.47-4.38-1.01-6.44l68.17-32.78c3.39-1.11,5.23-4.76,4.12-8.14-1.11-3.39-4.76-5.23-8.14-4.12-.56.13-1.1.33-1.61.6l-68.78,33.18c-4.7-4.9-11.23-8.04-18.5-8.04-2.15,0-4.2.3-6.23.8-.71.17-.51.11-.8.2-.29.09-.72.25-1.21.4-.98.3-2.29.67-4.02,1.21-3.46,1.07-8.49,2.62-14.28,4.42-3.33,1.04-8.23,2.63-12.07,3.82v-88.08h308.89v180.18Z"/>
  </g>
</svg>