<?xml version="1.0" encoding="utf-8"?>
<!-- Generator: Adobe Illustrator 27.2.0, SVG Export Plug-In . SVG Version: 6.00 Build 0)  -->
<svg version="1.1" xmlns="http://www.w3.org/2000/svg" xmlns:xlink="http://www.w3.org/1999/xlink" x="0px" y="0px"
	 viewBox="0 0 1190.55 841.89" style="enable-background:new 0 0 1190.55 841.89;" xml:space="preserve">
<style type="text/css">
	.st0{fill:#B50000;}
</style>
<g id="_x3C_Layer_x3E__1_">
</g>
<g id="_x3C_Layer_x3E_">
	<path class="st0" d="M371.18,409.72c-0.09-0.07-6.45-4.74-15.39-5.12l-215.78-0.01l-8.22,38.32h124.89
		c-0.15-7.89-3.24-15.47-10.77-21.49c7.46-2.16,13.72-7.99,17.76-15.44c-0.27,2.16-0.4,4.18-0.44,6.27
		c-0.18,11.41,4.81,19.52,12,25.29c1.45,1.1,7.88,5.37,20.52,5.37h87.08c0.43-3.16,0.72-6.42,0.83-9.8
		C383.98,422.97,378.54,415.36,371.18,409.72z M315.54,357.22c-1.49,0.01-13.92,0.24-22.19,4.8c-8.24,4.63-18.8,12.98-24.92,26.28
		c0.21-9.46-3.29-18.94-11.95-25.59c-6.41-4.55-16.66-5.55-22.52-5.72l-4.5,0.02h0l-79.32,0.26l-8.12,37.93l248.09-0.04l8.28-38.21
		L315.54,357.22z M121.85,489.38c0,0,82.96-0.32,98.14-0.32c11.67,0,28.33-15.43,34.39-32.78l-7.15,32.82h82.92
		c15.97,0,24.5-3.26,25.78-3.83c12.71-6.15,21.05-17.74,25.03-32.88h-251.2L121.85,489.38z"/>
	<g>
		<path d="M442.93,401.29h19.55c4.54,0,12.42,1.87,12.42,10.69c0,6.28-4.6,10.96-11.54,11.83v0.13c5.04,0.8,8.51,3.88,8.51,9.02
			c0,9.89-8.01,14.57-18.1,14.7l-20.05,0.27L442.93,401.29z M447.09,439.11h3.15c5.93,0,9.9-1.74,9.9-6.28
			c0-4.08-2.77-4.68-8.07-4.68h-2.84L447.09,439.11z M450.94,419.73h4.41c4.92,0,7.82-2.07,7.82-5.28c0-3.74-2.9-4.34-7.31-4.34
			h-3.03L450.94,419.73z"/>
		<path d="M488.9,401.29h30.96l-1.7,8.82H498.8l-2.02,9.62h18.35l-1.83,8.82h-18.29l-2.14,10.56h20.11l-1.7,8.82h-31.84
			L488.9,401.29z"/>
		<path d="M535.74,410.51h-10.97l1.89-9.22h33.86l-1.89,9.22h-10.97l-7.5,37.42h-11.92L535.74,410.51z"/>
		<path d="M577.97,401.29h14.76l7.19,46.64h-11.85l-1.2-9.96h-17.09l-5.23,9.96H551.8L577.97,401.29z M583.83,410.91h-0.13
			l-9.33,18.24h11.35L583.83,410.91z"/>
		<path d="M615.13,401.29h11.92l-7.31,37.42h18.41l-1.83,9.22h-30.33L615.13,401.29z"/>
		<path d="M651.71,401.29h11.85l-9.14,46.64h-11.85L651.71,401.29z"/>
		<path d="M676.86,401.29h14.69l9.02,32.34h0.13l6.18-32.34h11.1l-9.33,46.64h-14.63l-9.21-32.28h-0.13l-6.12,32.28h-11.1
			L676.86,401.29z"/>
		<path d="M764.82,412.25c-3.85-1.8-7.63-2.54-12.74-2.54c-11.79,0-16.52,8.82-16.52,17.64c0,8.29,4.98,12.16,10.97,12.16
			c1.51,0,3.03-0.27,4.67-0.8l1.96-9.22h-7l1.7-8.82h18.47l-5.23,26c-4.41,1.4-11.54,2.07-15.32,2.07
			c-14.19,0-22.32-8.89-22.32-21.72c0-15.5,8.76-26.53,29.19-26.53c5.36,0,9.9,0.94,14.69,2.27L764.82,412.25z"/>
		<path d="M808.06,411.52c-2.27-1.14-4.87-1.95-9.42-2.27c-4.65-0.33-8.86,1.2-8.86,4.94c0,6.62,17.09,4.14,17.09,18.31
			c0,12.9-11.29,16.24-21.5,16.24c-4.54,0-9.77-1.14-13.62-2.41l2.7-8.67c3.08,1.46,7.36,2.27,11.2,2.27c3.66,0,9.11-1.16,9.11-5.97
			c0-7.49-17.09-4.68-17.09-17.84c0-12.03,9.96-15.64,19.61-15.64c5.42,0,10.25,0.95,13.21,2.42L808.06,411.52z"/>
		<path d="M846.25,409.29c-2.14-1.34-4.82-2.27-8.31-2.27c-4.35,0-9.14,1.74-9.29,7.28c-0.21,7.82,15.49,7.24,15.17,19.47
			c-0.18,7.02-5.2,14.97-16.27,14.97c-5.34,0-9.13-1.2-12.78-2.67l2.27-6.15c2.66,1.74,6.38,2.94,9.61,2.94
			c6.99,0,10.07-4.41,10.17-8.29c0.25-9.49-15.5-7.17-15.16-20.13c0.22-8.49,7.99-13.3,15.57-13.3c3.82,0,7.56,0.73,11.02,2.21
			L846.25,409.29z"/>
		<path d="M862.31,401.29h23.9l-1.31,5.88h-17.4l-2.96,13.63h16.33l-1.12,5.88h-16.52l-3.35,15.37h18.47l-1.25,5.88h-24.84
			L862.31,401.29z"/>
		<path d="M900.27,401.29h8.64c6.18,0,16.46,0,16.36,11.36c-0.06,6.41-4.96,11.69-10.83,12.63c3.32,2.21,4.21,9.22,5.06,12.83
			l2.31,9.82h-6.68l-2.54-12.23c-1.57-7.48-2.64-8.49-5.92-8.49h-5.61l-4.28,20.72h-6.3L900.27,401.29z M902.36,421.33h4.98
			c4.48,0,11.17-1.54,11.23-7.75c0.04-4.88-2.53-6.42-7.38-6.42h-5.86L902.36,421.33z"/>
		<path d="M950.12,447.93h-7.57l-6.72-46.64h6.31l5.2,39.96h0.13l22.54-39.96h6.94L950.12,447.93z"/>
		<path d="M986.09,401.29h6.37l-9.87,46.64h-6.37L986.09,401.29z"/>
		<path d="M1028.81,447.46c-2.59,0.87-5.37,1.27-8.08,1.27c-11.73,0-20.62-6.55-20.5-21.32c0.1-11.43,7.68-26.93,26.66-26.93
			c3.53,0,7.18,0.74,10.45,2.14l-1.88,5.75c-2.64-1.2-5.53-2-8.5-2c-13.37,0-19.95,10.42-20.05,21.38
			c-0.09,10.22,6.3,15.1,14.88,15.1c2.65,0,5.43-0.53,7.9-1.6L1028.81,447.46z"/>
		<path d="M1049.77,401.29h23.9l-1.31,5.88h-17.4L1052,420.8h16.33l-1.12,5.88h-16.52l-3.35,15.37h18.47l-1.25,5.88h-24.84
			L1049.77,401.29z"/>
	</g>
</g>
<g id="Layer_3">
</g>
</svg>
