<?xml version="1.0" encoding="UTF-8" standalone="no"?>
<svg
   xmlns:dc="http://purl.org/dc/elements/1.1/"
   xmlns:cc="http://creativecommons.org/ns#"
   xmlns:rdf="http://www.w3.org/1999/02/22-rdf-syntax-ns#"
   xmlns:svg="http://www.w3.org/2000/svg"
   xmlns="http://www.w3.org/2000/svg"
   width="133.00002"
   height="39.000015"
   viewBox="0 0 35.189583 10.318754"
   version="1.1"
   id="svg8">

  <path
     id="svg_14"
     style="fill:#253574;stroke-width:0.999999"
     d="M 0.5 0.5 L 0.5 28.5 L 39.5 28.5 L 48.900391 18.5 L 58.5 28.5 L 132.5 28.5 L 132.5 0.5 L 0.5 0.5 z M 17.099609 8.4003906 C 18.299609 8.4003906 19.399969 8.6999055 20.5 9 L 20.300781 11.5 C 19.300795 11.000083 18.300768 10.699219 17.300781 10.699219 C 15.100793 10.699219 13.699219 12.300372 13.699219 14.400391 C 13.699219 16.700384 15.299974 18 17.5 18 C 18.499987 18 19.500372 17.699212 20.400391 17.199219 L 20.5 19.599609 C 19.599981 19.899666 18.699635 20.099609 17.099609 20.099609 C 14.09961 20.099609 10.599609 18.600787 10.599609 14.300781 C 10.599609 10.400762 13.299635 8.4003906 17.099609 8.4003906 z M 96.300781 8.5 C 97.400775 8.5 98.399244 8.6002961 99.199219 8.9003906 L 99 11.199219 C 98.199987 10.899163 97.399981 10.699219 96.5 10.699219 C 95.799994 10.699219 94.5 10.800794 94.5 11.800781 C 94.5 13.600782 99.900939 12.399608 99.800781 16.599609 C 99.800781 19.499603 97.300788 20.300781 94.800781 20.300781 C 93.700787 20.300781 92.400416 20.100876 91.400391 19.800781 L 91.699219 17.300781 C 92.399225 17.700693 93.500775 18 94.800781 18 C 95.800769 18 96.699219 17.800372 96.699219 16.900391 C 96.699219 14.800372 91.300781 16.099994 91.300781 12 C 91.300781 9.1999746 94.000787 8.5 96.300781 8.5 z M 21.900391 8.6992188 L 25 8.6992188 L 25 13 L 28.5 13 L 28.5 8.6992188 L 31.599609 8.6992188 L 31.599609 20 L 28.5 20 L 28.5 15.199219 L 25 15.199219 L 25 20 L 21.900391 20 L 21.900391 8.6992188 z M 33.599609 8.6992188 L 39 8.6992188 C 41.099981 8.6992186 42.699219 9.699641 42.699219 11.599609 C 42.699219 13.099629 42.000019 14.099975 40.5 14.5 C 41.500025 14.699975 41.599578 15.600781 42.099609 16.800781 L 43.199219 19.900391 L 40 19.900391 L 39.300781 17.900391 C 38.700781 16.000385 38.299212 15.5 37.199219 15.5 L 36.599609 15.5 L 36.599609 20 L 33.599609 20 L 33.599609 8.6992188 z M 54.599609 8.6992188 L 57.599609 8.6992188 L 57.599609 13 L 61.199219 13 L 61.199219 8.6992188 L 64.199219 8.6992188 L 64.199219 20 L 61.199219 20 L 61.199219 15.199219 L 57.599609 15.199219 L 57.599609 20 L 54.599609 20 L 54.599609 8.6992188 z M 69.800781 8.6992188 L 73.5 8.6992188 L 77.800781 20 L 74.5 20 L 73.699219 17.599609 L 69.400391 17.599609 L 68.5 20 L 65.5 20 L 69.800781 8.6992188 z M 79.099609 8.6992188 L 83 8.6992188 L 86.800781 16.400391 L 86.900391 16.400391 L 86.798828 8.6992188 L 89.599609 8.6992188 L 89.599609 20 L 85.798828 20 L 81.798828 12.300781 L 81.900391 20 L 79.099609 20 L 79.099609 8.6992188 z M 101.59961 8.6992188 L 109.69922 8.6992188 L 109.69922 10.900391 L 104.69922 10.900391 L 104.69922 13.199219 L 109.40039 13.199219 L 109.40039 15.300781 L 104.69922 15.300781 L 104.69922 17.900391 L 109.90039 17.900391 L 109.90039 20 L 101.59961 20 L 101.59961 8.6992188 z M 111.69922 8.6992188 L 115.59961 8.6992188 L 119.5 16.400391 L 119.5 8.6992188 L 122.19922 8.6992188 L 122.19922 20 L 118.5 20 L 114.5 12.300781 L 114.40039 12.300781 L 114.5 20 L 111.69922 20 L 111.69922 8.6992188 z M 36.699219 10.800781 L 36.699219 13.400391 L 37.5 13.400391 C 38.400019 13.400391 39.699219 13.399578 39.699219 12.099609 C 39.699219 10.99954 38.7 10.800781 37.5 10.800781 L 36.699219 10.800781 z M 71.599609 11.099609 L 70.099609 15.5 L 73 15.5 L 71.599609 11.099609 z"
     transform="scale(0.26458332)" />
  <path
     class=""
     id="svg_16"
     d="m 10.45104,7.54062 2.54,2.64584 2.48708,-2.64584 z"
     style="fill:#189a62;stroke-width:0.264583" />
</svg>
