<svg width="186" height="36" viewBox="0 0 186 36" fill="none" xmlns="http://www.w3.org/2000/svg">
<path d="M100.947 22.836C100.947 22.607 100.947 22.2636 100.947 21.9489C100.947 19.9171 101.29 18.4004 102.06 17.5991C102.459 17.5133 102.916 17.3416 103.172 17.1985C103.572 16.6548 104.77 14.0793 104.77 12.6199C104.77 11.2463 103.857 10.3306 102.288 10.3306C101.775 10.3306 100.691 10.5023 100.206 10.6453C99.9489 10.0444 99.3498 9.64376 98.2943 9.64376C97.0962 9.64376 95.0422 10.2447 95.0422 10.8743C95.0422 11.0174 95.1563 11.1032 95.2704 11.1032C95.356 11.1032 95.898 10.9601 96.4686 10.9601C97.3529 10.9601 97.8379 11.3894 97.8379 12.6485C97.8379 15.5388 96.6968 18.4576 94.9281 18.4576C94.2149 18.4576 93.5018 18.057 93.5018 16.7406C93.8726 16.712 94.8711 16.4831 95.299 16.1111L93.73 10.3592C94.4717 10.0444 94.9852 9.32898 94.9852 8.4991C94.9852 7.55475 94.3576 6.78211 93.5018 6.55318C93.5018 6.49594 93.5017 6.46733 93.4732 6.43871C93.4732 6.41009 93.2165 5.2082 93.2165 5.15097C93.2735 5.15097 94.4717 5.40852 94.5287 5.40852C94.5573 5.40852 94.5858 5.43713 94.6428 5.43713C94.8711 5.43713 95.0708 5.12235 95.0708 4.92204C95.0708 4.72172 94.8711 4.40694 94.6428 4.40694C94.5858 4.40694 94.5573 4.40694 94.5287 4.43556C94.5002 4.43556 93.2735 4.6931 93.2165 4.6931C93.2165 4.63587 93.4732 3.54845 93.4732 3.51983C93.4732 3.49121 93.5018 3.4626 93.5018 3.40536C93.5018 3.17643 93.188 2.97612 92.9883 2.97612C92.7886 2.97612 92.4748 3.17643 92.4748 3.40536C92.4748 3.4626 92.4748 3.49121 92.5033 3.51983C92.5033 3.54845 92.76 4.63587 92.76 4.6931C92.703 4.6931 91.5048 4.43556 91.4478 4.43556C91.4193 4.43556 91.3907 4.40694 91.3337 4.40694C91.1055 4.40694 90.9058 4.72172 90.9058 4.92204C90.9058 5.12235 91.1055 5.43713 91.3337 5.43713C91.3907 5.43713 91.4193 5.43713 91.4478 5.40852C91.4763 5.40852 92.703 5.15097 92.76 5.15097C92.76 5.2082 92.5033 6.38148 92.5033 6.43871C92.5033 6.46733 92.4748 6.49594 92.4748 6.55318C91.6189 6.78211 90.9914 7.55475 90.9914 8.4991C90.9914 9.32898 91.5048 10.0444 92.2466 10.3592L90.6776 16.1111C91.0769 16.4831 92.1039 16.712 92.4748 16.7406C92.4748 18.057 91.7616 18.4576 91.0484 18.4576C89.2797 18.4576 88.1386 15.5388 88.1386 12.6485C88.1386 11.3894 88.6236 10.9601 89.5079 10.9601C90.0785 10.9601 90.6205 11.1032 90.7061 11.1032C90.8202 11.1032 90.9343 11.0174 90.9343 10.8743C90.9343 10.2733 88.8803 9.64376 87.6822 9.64376C86.6267 9.64376 86.0276 10.0444 85.7709 10.6453C85.2859 10.5023 84.2019 10.3306 83.6884 10.3306C82.1194 10.3306 81.2065 11.2463 81.2065 12.6199C81.2065 14.0793 82.4046 16.6834 82.804 17.1985C83.0608 17.3416 83.5172 17.5133 83.9166 17.5991C84.6868 18.429 85.0291 19.9171 85.0291 21.9489C85.0291 22.2636 85.0291 22.607 85.0291 22.836H71.0508V22.0061C71.0508 9.84407 80.8642 0 92.9883 0C105.112 0 114.926 9.84407 114.926 22.0061V22.836H100.947Z" fill="#808080"/>
<path d="M98.9192 18.7418C98.1204 18.7418 97.8066 18.3412 97.8066 17.5399C97.8066 17.3396 97.8352 17.1965 97.9493 17.0248C98.3201 16.9676 98.8907 16.7387 99.1759 16.5098C99.6609 15.594 100.346 13.7626 100.346 12.0456C100.346 11.8166 100.346 11.6736 100.317 11.4732C100.545 11.4446 100.831 11.416 100.945 11.416C101.8 11.416 102.371 11.6736 102.371 12.9041C102.371 13.5909 101.002 18.7418 98.9192 18.7418Z" fill="#808080"/>
<path d="M83.5742 12.8767C83.5742 11.6462 84.1448 11.3887 85.0006 11.3887C85.1147 11.3887 85.4 11.4173 85.6282 11.4459C85.5997 11.6462 85.5996 11.8179 85.5996 12.0182C85.5996 13.7352 86.2843 15.5667 86.7693 16.4824C87.0545 16.7113 87.6251 16.9117 87.9959 16.9975C88.1101 17.1692 88.1386 17.3409 88.1386 17.5126C88.1386 18.3139 87.8248 18.7145 87.026 18.7145C84.9435 18.7431 83.5742 13.5921 83.5742 12.8767Z" fill="#808080"/>
<path d="M12.2812 35.8574V28.875H13.9644V35.8574H12.2812Z" fill="#808080"/>
<path d="M26.375 35.8574V28.875H28.0581V35.8574H26.375Z" fill="#808080"/>
<path d="M34.0774 30.0769V35.8574H32.3943V30.0769H30.1406V28.875H36.3025V30.0769H34.0774Z" fill="#808080"/>
<path d="M42.18 33.1675H39.2702L40.3543 29.991H41.0389L42.18 33.1675ZM45.0327 35.8574L42.3226 28.875H39.2702L36.6172 35.8574H38.3859L38.8994 34.3407H42.5223L43.0643 35.8574H45.0327Z" fill="#808080"/>
<path d="M46.916 28.875H48.5991V34.6555H51.9653V35.8574H46.916V28.875Z" fill="#808080"/>
<path d="M78.6392 30.964C78.6392 31.6794 78.1258 31.9656 77.2985 31.9656H76.0147V30.0769H77.327C78.2113 30.0769 78.6392 30.22 78.6392 30.964ZM81.0641 35.8575L78.6963 32.681C79.438 32.5379 80.2938 31.9656 80.2938 30.7923C80.2938 28.8464 78.4681 28.875 77.4126 28.875H74.3887V35.8575H76.0433V33.0816H77.2699L79.0386 35.8575H81.0641Z" fill="#808080"/>
<path d="M53.9316 35.8574V28.875H55.6148V35.8574H53.9316Z" fill="#808080"/>
<path d="M83.1465 35.8574V28.875H84.8296V35.8574H83.1465Z" fill="#808080"/>
<path d="M89.4494 30.0769V35.8574H87.9375V28.875H90.9043L93.6144 34.5697H93.9282V28.875H95.4687V35.8574H92.616L89.8488 30.0769H89.4494Z" fill="#808080"/>
<path d="M61.0073 35.9418C60.3797 35.9418 59.2957 35.8274 58.3828 35.4267L58.6396 34.1962C59.4383 34.5969 60.4368 34.7686 60.8647 34.7686C61.3782 34.7686 62.3196 34.6541 62.3766 33.9673C62.4052 33.4236 62.0058 33.2519 61.2641 32.9943L60.2371 32.6795C58.9534 32.2789 58.611 31.7352 58.611 30.7622C58.611 29.3314 60.0089 28.7305 61.692 28.7305C62.4052 28.7305 63.2039 28.9308 63.8315 29.1597L63.5177 30.2185C62.9187 29.9896 62.234 29.8465 61.7776 29.8465C60.9788 29.8465 60.2941 30.0182 60.2941 30.5619C60.2941 31.0198 60.5224 31.1629 61.3211 31.4204L62.4337 31.7924C63.5177 32.1358 64.0883 32.7368 64.0883 33.8814C64.0883 35.2264 62.9472 35.9418 61.0073 35.9418Z" fill="#808080"/>
<path d="M109.875 35.9418C109.247 35.9418 108.163 35.8274 107.25 35.4267L107.507 34.1962C108.306 34.5969 109.304 34.7686 109.732 34.7686C110.245 34.7686 111.187 34.6541 111.244 33.9673C111.272 33.4236 110.873 33.2519 110.131 32.9943L109.104 32.6795C107.821 32.2789 107.478 31.7352 107.478 30.7622C107.478 29.3314 108.876 28.7305 110.559 28.7305C111.272 28.7305 112.071 28.9308 112.699 29.1597L112.385 30.2185C111.786 29.9896 111.101 29.8465 110.645 29.8465C109.846 29.8465 109.161 30.0182 109.161 30.5619C109.161 31.0198 109.39 31.1629 110.188 31.4204L111.301 31.7924C112.385 32.1358 112.955 32.7368 112.955 33.8814C112.955 35.2264 111.814 35.9418 109.875 35.9418Z" fill="#808080"/>
<path d="M66.5137 35.8574V28.875H71.3633V30.0769H68.1968V31.708H71.2492V32.8527H68.1968V34.6841H71.5059V35.8574H66.5137Z" fill="#808080"/>
<path d="M142.823 30.9354C142.823 31.6508 142.309 31.937 141.482 31.937H140.198V30.0483H141.511C142.366 30.0769 142.823 30.1914 142.823 30.9354ZM145.248 35.8575L142.88 32.681C143.622 32.5379 144.477 31.9656 144.477 30.7923C144.477 28.8464 142.652 28.875 141.596 28.875H138.572V35.8575H140.227V33.0816H141.454L143.222 35.8575H145.248Z" fill="#808080"/>
<path d="M179.024 30.0769V35.8574H177.512V28.875H180.479L183.189 34.5697H183.502V28.875H185.043V35.8574H182.162L179.395 30.0769H179.024Z" fill="#808080"/>
<path d="M164.675 35.9418C164.048 35.9418 162.964 35.8274 162.051 35.4267L162.308 34.1962C163.106 34.5969 164.105 34.7686 164.533 34.7686C165.046 34.7686 165.988 34.6541 166.045 33.9673C166.073 33.4236 165.674 33.2519 164.932 32.9943L163.905 32.6795C162.621 32.2789 162.279 31.7352 162.279 30.7622C162.279 29.3314 163.648 28.7305 165.36 28.7305C166.073 28.7305 166.872 28.9308 167.5 29.1597L167.186 30.2185C166.587 29.9896 165.902 29.8465 165.446 29.8465C164.647 29.8465 163.962 30.0182 163.962 30.5619C163.962 31.0198 164.19 31.1629 164.989 31.3918L166.102 31.7638C167.186 32.1072 167.756 32.7082 167.756 33.8528C167.785 35.1978 166.615 35.9418 164.675 35.9418Z" fill="#808080"/>
<path d="M117.607 35.9418C116.979 35.9418 115.895 35.8274 114.982 35.4267L115.239 34.1962C116.038 34.5969 117.036 34.7686 117.464 34.7686C117.978 34.7686 118.919 34.6541 118.976 33.9673C119.005 33.4236 118.605 33.2519 117.864 32.9943L116.837 32.6795C115.553 32.2789 115.211 31.7352 115.211 30.7622C115.211 29.3314 116.608 28.7305 118.292 28.7305C119.005 28.7305 119.804 28.9308 120.431 29.1597L120.117 30.2185C119.518 29.9896 118.834 29.8465 118.377 29.8465C117.578 29.8465 116.894 30.0182 116.894 30.5619C116.894 31.0198 117.122 31.1629 117.921 31.3918L119.033 31.7638C120.117 32.1072 120.688 32.7082 120.688 33.8528C120.688 35.1978 119.547 35.9418 117.607 35.9418Z" fill="#808080"/>
<path d="M126.136 30.0769V35.8574H124.453V30.0769H122.199V28.875H128.361V30.0769H126.136Z" fill="#808080"/>
<path d="M147.561 35.8574V28.875H152.41V30.0769H149.244V31.708H152.296V32.8527H149.244V34.6841H152.553V35.8574H147.561Z" fill="#808080"/>
<path d="M155.547 28.8438H157.23V34.6243H160.596V35.8262H155.547V28.8438Z" fill="#808080"/>
<path d="M170.096 35.8574V28.875H174.945V30.0769H171.779V31.708H174.831V32.8527H171.779V34.6841H175.088V35.8574H170.096Z" fill="#808080"/>
<path d="M133.98 33.5681V35.8574H132.296V33.5681L129.529 28.875H131.441L133.067 31.8797H133.466L135.121 28.875H136.832L133.98 33.5681Z" fill="#808080"/>
<path d="M0.929688 26.6992H4.86645C8.66058 26.6992 9.68756 28.8168 9.68756 31.2779C9.68756 33.7103 8.63205 35.8279 4.86645 35.8279H0.929688V26.6992ZM5.26583 28.1873H2.84102V34.3971H5.23731C7.03453 34.3971 7.71918 33.2238 7.71918 31.2779C7.71918 29.4178 6.92042 28.1873 5.26583 28.1873Z" fill="#808080"/>
<path d="M101.803 31.7937V33.0242H103.201V34.7126C103.058 34.7412 102.773 34.8271 102.231 34.8271C100.605 34.8271 99.4354 33.7682 99.4354 32.2802C99.4354 30.7635 100.605 29.9909 102.345 29.9909C103.058 29.9909 103.6 30.1053 104.085 30.3056L104.171 30.3343L104.542 29.1324L104.456 29.1038C104.085 28.9321 103.287 28.7031 102.288 28.7031C99.5495 28.7031 97.8379 30.0481 97.8379 32.3374C97.8379 33.4535 98.2373 34.3978 98.979 35.0274C99.7492 35.6856 100.805 36.0003 102.203 36.0003C103.201 36.0003 104.199 35.8 104.799 35.5997L104.884 35.5711V31.8223H101.803V31.7937Z" fill="#808080"/>
<path d="M20.4438 31.7937V33.0242H21.8416V34.7126C21.699 34.7412 21.4137 34.8271 20.8717 34.8271C19.2457 34.8271 18.076 33.7682 18.076 32.2802C18.076 30.7635 19.2457 29.9909 20.9858 29.9909C21.699 29.9909 22.241 30.1053 22.726 30.3056L22.8116 30.3343L23.1824 29.1324L23.0968 29.1038C22.726 28.9321 21.9272 28.7031 20.9288 28.7031C18.1902 28.7031 16.4785 30.0481 16.4785 32.3374C16.4785 33.4535 16.8779 34.3978 17.6196 35.0274C18.3898 35.6856 19.4454 36.0003 20.8432 36.0003C21.8416 36.0003 22.8401 35.8 23.4392 35.5997L23.5248 35.5711V31.8223H20.4438V31.7937Z" fill="#808080"/>
</svg>
