<?xml version="1.0" encoding="utf-8"?>
<!-- Generator: Adobe Illustrator 27.2.0, SVG Export Plug-In . SVG Version: 6.00 Build 0)  -->
<svg version="1.1" id="Layer_1" xmlns="http://www.w3.org/2000/svg" xmlns:xlink="http://www.w3.org/1999/xlink" x="0px" y="0px"
	 viewBox="0 0 566.93 118.99" style="enable-background:new 0 0 566.93 118.99;" xml:space="preserve">
<style type="text/css">
	.st0{fill:#231F20;}
</style>
<g id="a">
</g>
<g id="b">
	<g id="c">
		<path class="st0" d="M340.98,0c-40.26,0-43.8,19.34-43.8,59.79c0,41.25,3.16,59.2,43.41,59.2c40.27,0,43.8-19.74,43.8-59.99
			C384.39,17.75,381.25-0.01,340.98,0 M340.98,102.4c-16.19,0-16.38-11.05-16.38-43.62c0-31.55,0-42.21,15.98-42.21
			c16.17,0,16.39,10.66,16.39,43.42C356.97,91.55,356.97,102.41,340.98,102.4 M32.55,100.43V17.97H21.71l-8.89,23.28H0V1.79h89.78
			v39.47H76.96l-8.87-23.28H57.24v82.45l12.44,4.16v12.62H20.13v-12.62L32.55,100.43L32.55,100.43z M130.43,18.56l10.08-4.16V1.79
			H95.33V14.4l10.04,4.16v69.26c0,22.5,12.63,31.17,40.06,31.17s39.67-10.67,39.67-32.96V18.56l10.06-4.16V1.79h-44.41V14.4
			l10.07,4.16v67.48c0,11.84-5.13,16.19-15.2,16.19c-10.06,0-15.2-4.56-15.2-15.99V18.56H130.43z M285.34,31.75
			c0-24.07-15-29.96-38.09-29.96h-46.17V14.4l10.07,4.16v81.87l-10.85,4.16v12.62h43.61c33.54,0,45.58-9.67,45.58-33.15
			c0-25.47-25.25-26.63-25.25-26.63S285.35,54.87,285.34,31.75 M235.81,17.56h9.08c8.9,0,14.81,2.96,14.81,16.98
			c0,13.04-5.92,16.37-16.19,16.37h-7.7L235.81,17.56L235.81,17.56z M235.81,101.42V66.69h7.91c12.82,0,18.94,4.16,18.94,18.37
			c0,14.19-8.09,16.37-20.92,16.37h-5.93L235.81,101.42z M424.46,56.05V17.56h8.68c11.45,0,15.8,4.16,15.8,19.17
			c0,14.59-4.95,19.32-17.39,19.32h-7.1H424.46z M548.77,0.78h15.59v39.85h-15.25l-7.88-21.58c0,0-2.32-1.88-10.61-1.88
			c-15.78,0-15.78,11.06-15.78,41.25c0,32.56,1.18,43.81,16.95,43.81c7.91,0,10.85-1.98,10.85-1.98V73.61l-11.24-4.15V56.87h35.52
			v54.62c0,0-13.03,7.5-36.11,7.5c-39.89,0-43.42-18.36-43.42-59.2C487.41,16.77,493.91,0,526.85,0c12.64,0,19.74,5.52,19.74,5.52
			L548.77,0.78L548.77,0.78z M434.53,117.22V104.6l-10.08-4.16V71.83h10.45l21.52,45.4h29.81V104.8l-10.66-5.14L458.41,66.7
			c0,0,17.38-4.53,17.38-31.97c0-26.43-17.19-32.93-36.93-32.93h-49.12v12.6l10.07,4.16v81.87l-10.87,4.16v12.62h45.6L434.53,117.22
			z"/>
	</g>
</g>
</svg>
