<?xml version="1.0" encoding="UTF-8"?><svg xmlns="http://www.w3.org/2000/svg" viewBox="0 0 566.93 118.99"><g id="a"/><g id="b"><g id="c"><path fill="#FFFFFF" d="M340.98,0c-40.26,0-43.8,19.34-43.8,59.79,0,41.25,3.16,59.2,43.41,59.2,40.27,0,43.8-19.74,43.8-59.99,0-41.25-3.14-59.01-43.41-59.01m0,102.41c-16.19,0-16.38-11.05-16.38-43.62,0-31.55,0-42.21,15.98-42.21,16.17,0,16.39,10.66,16.39,43.42,0,31.56,0,42.42-15.99,42.42m-308.43-1.98V17.97h-10.84l-8.89,23.28H0V1.79H89.78V41.26h-12.82l-8.87-23.28h-10.85V100.43l12.44,4.16v12.62H20.13v-12.62l12.42-4.16ZM130.43,18.56l10.08-4.16V1.79h-45.18V14.4l10.04,4.16V87.82c0,22.5,12.63,31.17,40.06,31.17,27.43,0,39.67-10.67,39.67-32.96V18.56l10.06-4.16V1.79h-44.41V14.4l10.07,4.16V86.04c0,11.84-5.13,16.19-15.2,16.19-10.06,0-15.2-4.56-15.2-15.99V18.56Zm154.91,13.19c0-24.07-15-29.96-38.09-29.96h-46.17V14.4l10.07,4.16V100.43l-10.85,4.16v12.62h43.61c33.54,0,45.58-9.67,45.58-33.15,0-25.47-25.25-26.63-25.25-26.63,0,0,21.11-2.56,21.11-25.68m-49.54-14.19h9.08c8.9,0,14.81,2.96,14.81,16.98,0,13.04-5.92,16.37-16.19,16.37h-7.7V17.56Zm0,83.86v-34.73h7.91c12.82,0,18.94,4.16,18.94,18.37,0,14.19-8.09,16.37-20.92,16.37h-5.93Zm188.65-45.37V17.56h8.68c11.45,0,15.8,4.16,15.8,19.17,0,14.59-4.95,19.32-17.39,19.32h-7.1ZM548.77,.78h15.59V40.63h-15.25l-7.88-21.58s-2.32-1.88-10.61-1.88c-15.78,0-15.78,11.06-15.78,41.25,0,32.56,1.18,43.81,16.95,43.81,7.91,0,10.85-1.98,10.85-1.98v-26.64l-11.24-4.15v-12.59h35.52v54.62s-13.03,7.5-36.11,7.5c-39.89,0-43.42-18.36-43.42-59.2C487.41,16.77,493.91,0,526.85,0c12.64,0,19.74,5.52,19.74,5.52l2.18-4.75Zm-114.24,116.44v-12.62l-10.08-4.16v-28.61h10.45l21.52,45.4h29.81v-12.43l-10.66-5.14-17.16-32.96s17.38-4.53,17.38-31.97c0-26.43-17.19-32.93-36.93-32.93h-49.12V14.4l10.07,4.16V100.43l-10.87,4.16v12.62h45.6Z"/></g></g></svg>