<?xml version="1.0" encoding="utf-8"?>
<!-- Generator: Adobe Illustrator 27.2.0, SVG Export Plug-In . SVG Version: 6.00 Build 0)  -->
<svg version="1.1" id="Layer_1" xmlns="http://www.w3.org/2000/svg" xmlns:xlink="http://www.w3.org/1999/xlink" x="0px" y="0px"
	 viewBox="0 0 1231.6 1239.3" style="enable-background:new 0 0 1231.6 1239.3;" xml:space="preserve">
<style type="text/css">
	.st0{clip-path:url(#SVGID_00000009562831709158961910000014716948924876108707_);}
	.st1{fill:#FF1F25;}
</style>
<defs>
	<rect id="SVGID_1_" x="0" width="1231.6" height="1239.3"/>
</defs>
<clipPath id="SVGID_00000039108612486079598480000009522532106972683424_">
	<use xlink:href="#SVGID_1_"  style="overflow:visible;"/>
</clipPath>
<g style="clip-path:url(#SVGID_00000039108612486079598480000009522532106972683424_);">
	<g>
		<g transform="translate(0.000000,1280.000000) scale(0.100000,-0.100000)">
			<path class="st1" d="M-43.9,12983.2c-125-38-180-171-116-282c15-25,38-52,51-61c101-66,235-25,281,85c44,104-16,228-122,258
				C8.1,12994.2-5.9,12994.2-43.9,12983.2z"/>
			<path class="st1" d="M1186.1,12983.2c-89-28-139-95-139-185c0-170,206-256,317-133c42,45,56,87,52,149c-5,64-38,118-94,151
				C1286.1,12986.2,1222.1,12995.2,1186.1,12983.2z"/>
			<path class="st1" d="M2404.1,12978.2c-78-28-126-96-126-180c0-60,19-103,63-142c60-53,137-63,207-27c34,17,77,63,89,97
				c15,39,14,111-3,150c-17,43-76,93-123,106C2463.1,12996.2,2452.1,12995.2,2404.1,12978.2z"/>
			<path class="st1" d="M3635.1,12979.2c-139-51-171-234-57-329c119-101,303-11,303,148
				C3881.1,12927.2,3751.1,13022.2,3635.1,12979.2z"/>
			<path class="st1" d="M4865.1,12978.2c-108-38-157-162-104-265c85-170,322-124,353,68c5,31,1,53-19,95c-27,59-61,89-122,106
				C4923.1,12996.2,4912.1,12995.2,4865.1,12978.2z"/>
			<path class="st1" d="M6098.1,12980.2c-46-15-106-77-121-125c-16-55-4-122,30-169c76-105,230-101,306,6c40,57,43,145,6,204
				C6273.1,12971.2,6178.1,13007.2,6098.1,12980.2z"/>
			<path class="st1" d="M7336.1,12979.2c-59-21-86-43-108-85c-35-69-36-113-6-176c15-30,39-63,54-74c161-114,369,63,280,239
				C7514.1,12966.2,7415.1,13009.2,7336.1,12979.2z"/>
			<path class="st1" d="M8576.1,12983.2c-124-37-179-173-115-282c61-105,213-124,293-36c98,107,53,280-84,318
				C8628.1,12994.2,8614.1,12994.2,8576.1,12983.2z"/>
			<path class="st1" d="M9794.1,12978.2c-78-28-126-96-126-180c0-60,19-103,63-142c60-53,137-63,207-27c34,17,77,63,89,97
				c15,39,14,111-3,150c-17,43-76,93-123,106C9853.1,12996.2,9842.1,12995.2,9794.1,12978.2z"/>
			<path class="st1" d="M11025.1,12979.2c-139-51-171-234-57-329c59-50,136-56,211-15c119,65,121,255,4,323
				C11131.1,12989.2,11073.1,12997.2,11025.1,12979.2z"/>
			<path class="st1" d="M12255.1,12979.2c-175-64-164-308,16-366c108-34,231,64,231,186
				C12502.1,12927.2,12371.1,13022.2,12255.1,12979.2z"/>
			<path class="st1" d="M529.1,12345.2c-122-62-136-234-25-318c37-29,117-43,168-30c32,8,93,61,112,97c17,33,19,116,3,156
				c-13,34-55,80-91,99C658.1,12369.2,570.1,12367.2,529.1,12345.2z"/>
			<path class="st1" d="M1763.1,12346.2c-46-24-66-45-86-88c-55-119,20-252,146-263c71-6,97,2,140,40c61,53,84,119,65,187
				c-12,46-59,105-101,127C1890.1,12368.2,1801.1,12366.2,1763.1,12346.2z"/>
			<path class="st1" d="M2985.1,12342.2c-91-48-123-179-64-267c51-78,161-106,247-62c93,47,126,175,69,267
				C3189.1,12357.2,3069.1,12387.2,2985.1,12342.2z"/>
			<path class="st1" d="M4233.1,12349.2c-69-30-124-130-110-199c12-55,51-111,95-136c59-33,152-27,205,13c85,65,98,200,27,279
				C4403.1,12358.2,4300.1,12378.2,4233.1,12349.2z"/>
			<path class="st1" d="M5468.1,12352.2c-32-13-78-57-96-91c-17-32-18-115-3-155c26-68,95-113,176-113c178,0,250,227,107,337
				c-29,22-49,28-98,30C5521.1,12362.2,5482.1,12358.2,5468.1,12352.2z"/>
			<path class="st1" d="M6688.1,12344.2c-59-32-93-83-98-149c-8-118,68-202,183-202c75,0,137,37,171,102c17,32,18,115,3,155
				c-14,38-57,83-96,99C6805.1,12369.2,6729.1,12366.2,6688.1,12344.2z"/>
			<path class="st1" d="M7923.1,12347.2c-45-23-66-45-86-89c-37-80-13-178,56-231c53-40,146-46,205-13c44,25,83,81,95,136
				c14,67-37,163-106,199C8050.1,12368.2,7961.1,12367.2,7923.1,12347.2z"/>
			<path class="st1" d="M9137.1,12334.2c-58-36-84-87-84-162c1-180,242-249,342-97c38,56,39,145,5,201
				C9345.1,12363.2,9225.1,12390.2,9137.1,12334.2z"/>
			<path class="st1" d="M10393.1,12349.2c-43-18-92-78-105-127c-19-68,4-134,65-187c43-38,69-46,140-40c123,10,198,139,150,255
				c-20,48-41,71-87,94C10513.1,12366.2,10437.1,12368.2,10393.1,12349.2z"/>
			<path class="st1" d="M11623.1,12349.2c-38-17-80-62-94-99s-14-123,0-150c17-32,60-77,91-93c38-20,126-18,167,4
				c123,62,136,234,25,319c-29,22-49,28-98,30C11677.1,12362.2,11641.1,12358.2,11623.1,12349.2z"/>
			<path class="st1" d="M-43.9,11743.2c-121-37-177-167-120-277c26-50,63-78,124-93c152-38,278,127,206,270
				C127.1,11719.2,29.1,11766.2-43.9,11743.2z"/>
			<path class="st1" d="M1186.1,11743.2c-88-26-139-95-139-186c0-159,181-248,301-147c117,98,80,285-64,328
				C1229.1,11755.2,1225.1,11755.2,1186.1,11743.2z"/>
			<path class="st1" d="M2404.1,11738.2c-78-28-126-96-126-180c0-60,19-103,63-142c32-28,90-53,122-53c60,0,148,60,171,117
				c18,41,18,115,0,156c-17,43-76,93-123,106C2463.1,11756.2,2452.1,11755.2,2404.1,11738.2z"/>
			<path class="st1" d="M3673.1,11748.2c-5-2-22-6-37-9c-37-8-85-51-110-99c-15-31-19-54-16-99c10-139,158-217,279-146
				c122,71,122,258,0,326C3753.1,11741.2,3692.1,11755.2,3673.1,11748.2z"/>
			<path class="st1" d="M4878.1,11742.2c-146-43-187-234-71-332c121-102,305-12,305,148
				C5112.1,11680.2,4991.1,11775.2,4878.1,11742.2z"/>
			<path class="st1" d="M6104.1,11741.2c-21-6-56-28-77-49c-120-120-37-324,132-324c108,0,184,80,184,192c0,52-4,68-30,104
				C6265.1,11732.2,6183.1,11762.2,6104.1,11741.2z"/>
			<path class="st1" d="M7346.1,11743.2c-144-44-191-217-88-320c118-118,319-33,320,135
				C7578.1,11674.2,7451.1,11776.2,7346.1,11743.2z"/>
			<path class="st1" d="M8576.1,11743.2c-88-27-139-95-140-185c-2-159,182-249,302-148c86,72,93,197,16,281
				C8713.1,11737.2,8631.1,11760.2,8576.1,11743.2z"/>
			<path class="st1" d="M9794.1,11738.2c-78-28-126-96-126-180c0-60,19-103,63-142c32-28,90-53,122-53c60,0,148,60,171,117
				c18,41,18,115,0,156c-17,43-76,93-123,106C9853.1,11756.2,9842.1,11755.2,9794.1,11738.2z"/>
			<path class="st1" d="M11063.1,11748.2c-5-2-22-6-37-9c-37-8-85-51-110-99c-15-31-19-54-16-99c10-139,158-217,279-146
				c120,71,122,258,2,325C11144.1,11741.2,11083.1,11756.2,11063.1,11748.2z"/>
			<path class="st1" d="M12268.1,11742.2c-146-43-187-234-71-332c121-102,305-12,305,148
				C12502.1,11680.2,12381.1,11775.2,12268.1,11742.2z"/>
			<path class="st1" d="M543.1,11114.2c-76-35-115-95-115-177c0-86,56-158,139-180c73-19,131-2,183,53c35,37,48,73,48,137
				c0,71-37,128-104,161C635.1,11138.2,597.1,11139.2,543.1,11114.2z"/>
			<path class="st1" d="M1785.1,11119.2c-177-65-162-323,21-364c71-16,129,4,180,62C2112.1,10960.2,1962.1,11185.2,1785.1,11119.2z"
				/>
			<path class="st1" d="M3013.1,11118.2c-80-28-134-122-121-209c20-123,157-194,270-141c56,27,106,106,106,169c0,79-63,165-135,185
				C3082.1,11136.2,3062.1,11135.2,3013.1,11118.2z"/>
			<path class="st1" d="M4250.1,11122.2c-48-14-106-77-121-131c-33-116,55-237,172-240c55-1,84,8,126,39c118,89,77,293-67,333
				C4316.1,11135.2,4295.1,11135.2,4250.1,11122.2z"/>
			<path class="st1" d="M5498.1,11126.2c-93-34-140-94-140-179c0-29,5-65,11-81c13-35,55-80,92-99c34-18,111-20,152-4
				c92,35,141,158,101,253C5682.1,11093.2,5567.1,11151.2,5498.1,11126.2z"/>
			<path class="st1" d="M6714.1,11118.2c-49-17-102-69-117-113c-42-126,49-254,180-254c54,0,94,17,133,59c35,37,48,73,48,136
				c0,81-49,148-129,175C6786.1,11136.2,6763.1,11136.2,6714.1,11118.2z"/>
			<path class="st1" d="M7944.1,11119.2c-117-43-162-187-90-289c106-149,337-75,339,108
				C8194.1,11068.2,8064.1,11163.2,7944.1,11119.2z"/>
			<path class="st1" d="M9180.1,11122.2c-47-14-109-80-122-131c-33-122,55-240,180-240c62,0,123,32,157,84c36,54,39,144,7,198
				C9359.1,11107.2,9260.1,11146.2,9180.1,11122.2z"/>
			<path class="st1" d="M10410.1,11122.2c-51-15-107-78-121-137c-38-157,123-287,265-214c48,24,69,47,89,95c43,103-17,227-123,257
				C10476.1,11135.2,10455.1,11135.2,10410.1,11122.2z"/>
			<path class="st1" d="M11643.1,11121.2c-76-27-125-96-125-175c0-63,13-99,48-136c40-43,78-58,138-58c98,0,174,69,182,165
				c6,71-11,117-58,160C11772.1,11128.2,11706.1,11143.2,11643.1,11121.2z"/>
			<path class="st1" d="M-37.9,10503.2c-160-37-202-248-68-340c51-34,136-39,192-11c86,44,124,153,84,243
				C135.1,10475.2,44.1,10522.2-37.9,10503.2z"/>
			<path class="st1" d="M1213.1,10508.2c-5-2-22-6-37-9c-34-8-94-59-114-98c-20-38-20-128,0-166c22-43,81-90,121-98
				c196-36,312,174,177,318C1331.1,10486.2,1244.1,10517.2,1213.1,10508.2z"/>
			<path class="st1" d="M2423.1,10503.2c-44-10-69-25-103-64c-103-117-14-306,143-306s246,189,143,306
				C2557.1,10495.2,2490.1,10518.2,2423.1,10503.2z"/>
			<path class="st1" d="M3645.1,10498.2c-110-28-166-146-122-252c30-72,93-113,170-113c90,0,158,52,180,138c21,78,2,136-60,190
				c-31,28-47,35-105,46C3699.1,10509.2,3671.1,10505.2,3645.1,10498.2z"/>
			<path class="st1" d="M4884.1,10501.2c-127-28-185-178-112-288c73-111,250-105,315,10c35,63,37,112,7,175
				C5053.1,10481.2,4972.1,10521.2,4884.1,10501.2z"/>
			<path class="st1" d="M6123.1,10503.2c-53-12-94-40-123-82c-22-34-27-53-27-103c0-51,5-69,28-102c92-133,286-104,337,50
				C6380.1,10396.2,6255.1,10534.2,6123.1,10503.2z"/>
			<path class="st1" d="M7351.1,10503.2c-141-32-195-198-100-307c108-123,309-58,325,106
				C7588.1,10426.2,7471.1,10531.2,7351.1,10503.2z"/>
			<path class="st1" d="M8603.1,10508.2c-5-2-22-6-37-9c-35-8-94-59-115-100c-9-17-16-53-16-81c0-194,265-258,353-85
				c39,77,18,176-50,234c-17,14-42,28-56,31C8631.1,10509.2,8613.1,10511.2,8603.1,10508.2z"/>
			<path class="st1" d="M9813.1,10503.2c-16-3-40-12-51-18c-37-19-83-80-90-117c-24-130,57-235,181-235c123,0,205,106,181,235
				C10017.1,10454.2,9903.1,10524.2,9813.1,10503.2z"/>
			<path class="st1" d="M11035.1,10498.2c-113-29-168-151-118-261s200-140,291-58c44,40,63,86,62,150c-1,54-20,92-67,132
				c-31,28-47,35-105,46C11089.1,10509.2,11061.1,10505.2,11035.1,10498.2z"/>
			<path class="st1" d="M12274.1,10501.2c-127-28-185-178-112-288c75-113,250-105,318,15
				C12558.1,10367.2,12430.1,10537.2,12274.1,10501.2z"/>
			<path class="st1" d="M554.1,9879.2c-78-29-126-97-126-181c0-77,41-140,113-170c80-33,171-8,224,61c22,30,28,49,31,103
				c3,58,0,71-24,108C724.1,9873.2,631.1,9907.2,554.1,9879.2z"/>
			<path class="st1" d="M1784.1,9878.2c-153-54-168-274-24-344c148-71,305,54,267,212c-14,61-67,117-125,135
				C1851.1,9896.2,1833.1,9896.2,1784.1,9878.2z"/>
			<path class="st1" d="M3013.1,9879.2c-71-27-125-107-125-186c1-60,63-147,123-169c39-15,101-14,140,3c41,17,91,74,107,121
				C3305.1,9789.2,3154.1,9930.2,3013.1,9879.2z"/>
			<path class="st1" d="M4248.1,9880.2c-86-28-144-137-120-226c13-50,63-109,107-127c79-33,184-2,230,67c69,105,15,255-104,288
				C4315.1,9895.2,4294.1,9895.2,4248.1,9880.2z"/>
			<path class="st1" d="M5489.1,9881.2c-51-14-79-37-108-85c-22-37-25-53-21-107c3-50,10-71,31-100c109-142,337-68,337,109
				c0,25-6,60-14,78c-17,43-76,93-123,106C5547.1,9895.2,5535.1,9895.2,5489.1,9881.2z"/>
			<path class="st1" d="M6714.1,9879.2c-78-29-126-97-126-181c0-77,41-140,113-170c80-33,171-8,224,61c39,52,45,145,12,204
				C6894.1,9868.2,6793.1,9908.2,6714.1,9879.2z"/>
			<path class="st1" d="M7944.1,9878.2c-153-54-168-274-24-344c147-71,305,54,267,212c-14,61-67,117-125,135
				C8011.1,9896.2,7993.1,9896.2,7944.1,9878.2z"/>
			<path class="st1" d="M9185.1,9883.2c-74-22-137-105-137-180c0-45,30-108,66-142c94-87,239-55,295,67
				C9475.1,9771.2,9336.1,9928.2,9185.1,9883.2z"/>
			<path class="st1" d="M10413.1,9881.2c-127-45-173-198-88-298c106-127,312-68,331,95
				C10671.1,9813.2,10538.1,9925.2,10413.1,9881.2z"/>
			<path class="st1" d="M11633.1,9874.2c-85-40-119-95-113-186c5-74,36-123,98-155c65-33,159-21,213,28c52,47,72,147,43,215
				c-25,62-112,117-181,117C11682.1,9893.2,11655.1,9884.2,11633.1,9874.2z"/>
			<path class="st1" d="M-77.9,9254.2c-80-36-127-136-105-219c13-47,60-106,102-128c15-7,51-14,79-14c204,0,262,277,75,361
				C22.1,9278.2-25.9,9277.2-77.9,9254.2z"/>
			<path class="st1" d="M1176.1,9263.2c-131-39-175-215-78-316c42-42,87-58,155-52c150,13,220,201,117,312
				C1319.1,9262.2,1243.1,9283.2,1176.1,9263.2z"/>
			<path class="st1" d="M2403.1,9260.2c-57-23-74-37-101-83c-23-39-26-53-22-109c3-53,9-71,34-102c40-50,87-73,149-73s109,23,149,73
				c63,78,42,213-43,271C2525.1,9268.2,2448.1,9279.2,2403.1,9260.2z"/>
			<path class="st1" d="M3619.1,9251.2c-98-51-136-153-93-250c38-87,140-130,234-99c138,46,162,255,39,336
				C3743.1,9275.2,3674.1,9280.2,3619.1,9251.2z"/>
			<path class="st1" d="M4853.1,9254.2c-187-84-129-361,75-361c61,0,96,17,138,64c60,69,64,163,10,237
				C5024.1,9266.2,4933.1,9291.2,4853.1,9254.2z"/>
			<path class="st1" d="M6083.1,9254.2c-144-66-153-255-17-338c52-32,131-31,188,2c45,27,94,106,94,154c0,78-46,151-115,182
				C6182.1,9278.2,6134.1,9278.2,6083.1,9254.2z"/>
			<path class="st1" d="M7310.1,9252.2c-113-56-143-200-60-295c42-47,77-64,138-64c204,0,262,277,75,361
				C7410.1,9278.2,7362.1,9278.2,7310.1,9252.2z"/>
			<path class="st1" d="M8566.1,9263.2c-77-23-131-99-131-185c0-196,273-258,354-81c47,103,7,209-96,257
				C8651.1,9274.2,8610.1,9277.2,8566.1,9263.2z"/>
			<path class="st1" d="M9796.1,9264.2c-47-15-86-50-108-97c-46-95-10-209,81-257c52-28,146-20,193,16c136,105,78,327-90,342
				C9845.1,9270.2,9811.1,9268.2,9796.1,9264.2z"/>
			<path class="st1" d="M11023.1,9262.2c-40-15-94-67-111-106c-20-46-17-117,6-163c55-108,200-135,290-54s80,234-19,299
				C11145.1,9267.2,11068.1,9278.2,11023.1,9262.2z"/>
			<path class="st1" d="M12243.1,9254.2c-187-84-129-361,75-361c61,0,96,17,138,64c42,49,57,106,42,165
				C12468.1,9243.2,12351.1,9303.2,12243.1,9254.2z"/>
			<path class="st1" d="M530.1,8632.2c-104-52-134-200-60-294c56-72,183-87,254-29c51,41,74,88,74,152c0,85-39,146-113,177
				C634.1,8659.2,581.1,8657.2,530.1,8632.2z"/>
			<path class="st1" d="M1773.1,8639.2c-177-78-137-345,54-364c66-6,113,12,155,58c56,62,68,147,31,220
				C1972.1,8634.2,1855.1,8675.2,1773.1,8639.2z"/>
			<path class="st1" d="M3003.1,8636.2c-46-24-76-54-96-98c-25-55-24-102,6-161c72-144,269-138,336,11c44,97-1,207-103,250
				C3099.1,8657.2,3042.1,8657.2,3003.1,8636.2z"/>
			<path class="st1" d="M4238.1,8637.2c-52-23-88-61-106-116c-52-159,110-301,261-228c112,54,140,200,57,292
				C4390.1,8652.2,4314.1,8670.2,4238.1,8637.2z"/>
			<path class="st1" d="M5468.1,8638.2c-46-21-68-42-92-89c-29-58-22-150,15-200c86-112,255-98,318,26c41,81,12,196-63,245
				C5597.1,8653.2,5519.1,8660.2,5468.1,8638.2z"/>
			<path class="st1" d="M6690.1,8632.2c-80-40-122-144-93-232c48-143,235-172,328-51c52,69,41,198-24,256
				C6847.1,8655.2,6758.1,8666.2,6690.1,8632.2z"/>
			<path class="st1" d="M7933.1,8639.2c-40-17-90-75-105-121c-17-51-7-118,23-164c46-69,151-100,230-67c60,25,117,111,117,177
				c0,30-30,103-53,128C8095.1,8646.2,7998.1,8667.2,7933.1,8639.2z"/>
			<path class="st1" d="M9180.1,8645.2c-67-21-132-110-132-182c0-79,74-172,145-186c92-17,170,20,210,100c31,62,32,109,3,166
				c-34,66-86,103-150,106C9227.1,8651.2,9193.1,8649.2,9180.1,8645.2z"/>
			<path class="st1" d="M10392.1,8634.2c-80-37-127-136-104-220c6-23,27-60,46-81c119-132,337-33,322,145
				C10645.1,8610.2,10510.1,8690.2,10392.1,8634.2z"/>
			<path class="st1" d="M11639.1,8643.2c-126-54-163-211-72-314c61-70,189-74,265-7c83,73,70,235-26,298
				C11763.1,8649.2,11680.1,8660.2,11639.1,8643.2z"/>
			<path class="st1" d="M-66.9,8018.2c-83-29-139-136-115-223c28-108,154-171,253-128c39,17,92,71,106,109c35,93-15,201-111,242
				C21.1,8036.2-13.9,8037.2-66.9,8018.2z"/>
			<path class="st1" d="M1173.1,8021.2c-49-18-84-47-106-90s-27-117-11-159c57-147,273-157,341-17c49,103,10,211-94,259
				C1259.1,8035.2,1218.1,8037.2,1173.1,8021.2z"/>
			<path class="st1" d="M2403.1,8020.2c-79-31-125-95-125-174c0-121,90-204,206-190c181,20,226,265,65,349
				C2492.1,8035.2,2452.1,8039.2,2403.1,8020.2z"/>
			<path class="st1" d="M3623.1,8015.2c-105-50-143-157-94-260c73-150,302-126,344,36c31,117-43,225-161,238
				C3676.1,8032.2,3652.1,8029.2,3623.1,8015.2z"/>
			<path class="st1" d="M4853.1,8015.2c-127-61-154-214-54-309c159-150,401,49,287,235C5039.1,8018.2,4931.1,8052.2,4853.1,8015.2z"
				/>
			<path class="st1" d="M6095.1,8018.2c-50-17-85-50-108-100c-43-93-4-196,93-246c93-48,209,0,253,103c41,99-18,218-123,248
				C6162.1,8036.2,6142.1,8035.2,6095.1,8018.2z"/>
			<path class="st1" d="M7335.1,8023.2c-93-28-153-135-127-228c41-155,247-190,338-57C7643.1,7878.2,7499.1,8072.2,7335.1,8023.2z"
				/>
			<path class="st1" d="M8566.1,8023.2c-161-48-177-282-24-351c144-65,292,56,262,216C8786.1,7983.2,8664.1,8053.2,8566.1,8023.2z"
				/>
			<path class="st1" d="M9808.1,8026.2c-93-34-140-94-140-180c0-157,160-245,290-159c97,64,108,223,21,294
				C9930.1,8021.2,9852.1,8042.2,9808.1,8026.2z"/>
			<path class="st1" d="M11013.1,8014.2c-104-48-143-156-94-259c68-140,284-130,341,17c27,71-3,179-59,219
				C11137.1,8035.2,11075.1,8043.2,11013.1,8014.2z"/>
			<path class="st1" d="M12243.1,8015.2c-127-61-154-214-54-309c159-150,401,49,287,235
				C12429.1,8018.2,12321.1,8052.2,12243.1,8015.2z"/>
			<path class="st1" d="M530.1,7392.2c-125-62-136-250-19-327c58-38,146-38,205,1c53,34,82,90,82,157c0,83-40,144-113,175
				C634.1,7419.2,581.1,7417.2,530.1,7392.2z"/>
			<path class="st1" d="M1775.1,7399.2c-125-55-156-217-60-308c107-102,267-59,312,83C2072.1,7315.2,1910.1,7459.2,1775.1,7399.2z"
				/>
			<path class="st1" d="M3003.1,7394.2c-154-71-150-280,7-346c92-38,195,5,239,100c45,96-1,207-103,250
				C3097.1,7418.2,3052.1,7417.2,3003.1,7394.2z"/>
			<path class="st1" d="M4233.1,7394.2c-111-50-145-182-74-281c55-76,148-99,229-57c148,75,146,270-5,338
				C4332.1,7418.2,4284.1,7417.2,4233.1,7394.2z"/>
			<path class="st1" d="M5479.1,7403.2c-78-33-121-97-121-180c0-94,62-169,153-186c79-14,172,37,203,112c33,79,3,185-66,230
				C5606.1,7407.2,5518.1,7419.2,5479.1,7403.2z"/>
			<path class="st1" d="M6690.1,7392.2c-111-56-136-202-50-295c117-127,318-47,318,126C6958.1,7364.2,6813.1,7455.2,6690.1,7392.2z"
				/>
			<path class="st1" d="M7944.1,7403.2c-37-12-94-66-112-107c-51-119,47-263,179-263c50,0,118,39,152,88c25,36,30,53,30,102
				s-5,66-30,102C8112.1,7397.2,8027.1,7427.2,7944.1,7403.2z"/>
			<path class="st1" d="M9163.1,7394.2c-154-71-150-280,7-346c92-38,195,5,239,100c45,96-1,207-103,250
				C9257.1,7418.2,9212.1,7417.2,9163.1,7394.2z"/>
			<path class="st1" d="M10393.1,7394.2c-110-50-145-183-73-282c54-75,147-98,228-56c65,33,102,85,107,149
				C10667.1,7353.2,10525.1,7455.2,10393.1,7394.2z"/>
			<path class="st1" d="M11628.1,7398.2c-71-33-110-94-110-175c0-107,75-185,179-185c109,0,180,65,189,170c9,108-64,195-171,202
				C11682.1,7412.2,11650.1,7407.2,11628.1,7398.2z"/>
			<path class="st1" d="M-82.9,6774.2c-100-55-135-176-79-268c30-50,85-85,139-91c67-6,113,12,159,62c82,88,65,217-36,286
				C53.1,6796.2-32.9,6801.2-82.9,6774.2z"/>
			<path class="st1" d="M1146.1,6773.2c-40-21-81-70-93-109c-13-42-6-109,14-150c93-181,366-99,349,104
				C1405.1,6753.2,1263.1,6834.2,1146.1,6773.2z"/>
			<path class="st1" d="M2388.1,6777.2c-71-31-110-92-110-174c0-83,40-144,113-175c64-27,150-13,200,33c74,67,74,217,0,284
				C2541.1,6791.2,2452.1,6805.2,2388.1,6777.2z"/>
			<path class="st1" d="M3610.1,6772.2c-125-62-136-250-20-326c112-74,257-14,287,118C3912.1,6718.2,3752.1,6842.2,3610.1,6772.2z"
				/>
			<path class="st1" d="M4853.1,6780.2c-95-43-139-159-96-252c47-102,156-144,250-95c174,88,125,346-67,357
				C4906.1,6792.2,4871.1,6788.2,4853.1,6780.2z"/>
			<path class="st1" d="M6083.1,6779.2c-63-29-115-110-115-179c0-18,10-53,23-77c75-148,270-146,338,5c25,54,24,102-3,155
				c-35,68-86,103-156,107C6136.1,6792.2,6101.1,6788.2,6083.1,6779.2z"/>
			<path class="st1" d="M7307.1,6773.2c-99-52-136-175-79-267c45-74,141-111,222-84c68,22,128,110,128,185c-1,66-61,152-123,175
				C7412.1,6798.2,7347.1,6794.2,7307.1,6773.2z"/>
			<path class="st1" d="M8536.1,6773.2c-135-72-134-268,2-338c131-67,280,35,268,183C8795.1,6753.2,8653.1,6834.2,8536.1,6773.2z"/>
			<path class="st1" d="M9778.1,6777.2c-45-20-68-41-91-86c-36-70-18-180,38-230c50-46,136-60,200-33c48,20,71,41,94,87
				c36,70,18,180-38,230C9931.1,6791.2,9842.1,6805.2,9778.1,6777.2z"/>
			<path class="st1" d="M11000.1,6772.2c-90-45-127-160-82-254c59-123,232-141,313-33c31,41,40,70,39,124
				C11267.1,6748.2,11125.1,6834.2,11000.1,6772.2z"/>
			<path class="st1" d="M12243.1,6780.2c-104-48-147-189-85-281c74-106,221-114,303-16c99,117,21,298-131,307
				C12296.1,6792.2,12261.1,6788.2,12243.1,6780.2z"/>
			<path class="st1" d="M533.1,6157.2c-76-42-109-101-103-185c8-111,93-187,198-177c101,10,170,87,170,190c0,64-23,111-74,152
				c-30,25-47,31-99,33C582.1,6172.2,554.1,6168.2,533.1,6157.2z"/>
			<path class="st1" d="M1746.1,6144.2c-111-71-117-223-11-310c102-84,261-26,293,107C2067.1,6106.2,1889.1,6234.2,1746.1,6144.2z"
				/>
			<path class="st1" d="M2992.1,6153.2c-62-31-104-101-104-174c0-40,30-105,61-133c97-89,245-58,300,62c24,51,24,99,0,150
				C3201.1,6161.2,3091.1,6202.2,2992.1,6153.2z"/>
			<path class="st1" d="M4233.1,6159.2c-43-19-92-78-106-128c-39-145,112-280,249-223c144,61,164,254,34,336
				C4358.1,6177.2,4287.1,6183.2,4233.1,6159.2z"/>
			<path class="st1" d="M5463.1,6157.2c-73-38-105-91-105-174c0-184,237-260,338-108c50,76,38,194-24,249
				C5616.1,6173.2,5522.1,6188.2,5463.1,6157.2z"/>
			<path class="st1" d="M6693.1,6157.2c-69-38-105-96-105-170c0-191,240-265,341-106c54,85,35,191-45,256c-30,25-47,31-99,33
				C6742.1,6172.2,6714.1,6168.2,6693.1,6157.2z"/>
			<path class="st1" d="M7915.1,6152.2c-20-11-49-38-65-61c-23-35-27-52-27-109c0-60,3-71,31-106c36-46,105-83,154-83
				c117,1,212,125,181,238c-14,51-64,110-108,128C8035.1,6179.2,7960.1,6176.2,7915.1,6152.2z"/>
			<path class="st1" d="M9163.1,6159.2c-62-28-115-110-115-178c0-41,30-106,61-135c97-89,245-58,300,62c26,56,24,104-9,166
				c-20,39-38,58-71,76C9279.1,6176.2,9210.1,6180.2,9163.1,6159.2z"/>
			<path class="st1" d="M10393.1,6159.2c-17-7-45-29-62-49c-129-148,26-376,205-302c144,61,164,254,34,336
				C10518.1,6177.2,10447.1,6183.2,10393.1,6159.2z"/>
			<path class="st1" d="M11619.1,6156.2c-19-10-48-35-65-56c-41-51-49-143-17-205c45-88,157-125,246-82c124,60,141,241,30,326
				C11765.1,6176.2,11672.1,6184.2,11619.1,6156.2z"/>
			<path class="st1" d="M-82.9,5533.2c-131-69-142-245-20-325c97-64,224-27,272,80c34,74,22,144-34,204
				C76.1,5554.2-11.9,5571.2-82.9,5533.2z"/>
			<path class="st1" d="M1152.1,5534.2c-43-19-86-68-99-110c-22-72,8-170,63-210c79-56,170-50,242,15c46,42,64,89,58,155
				C1403.1,5513.2,1271.1,5588.2,1152.1,5534.2z"/>
			<path class="st1" d="M2399.1,5542.2c-76-31-121-96-121-179c0-60,17-96,64-137c89-79,215-63,277,36c48,74,35,187-28,243
				C2545.1,5547.2,2455.1,5564.2,2399.1,5542.2z"/>
			<path class="st1" d="M3610.1,5532.2c-107-53-136-201-56-289c164-181,434,44,287,239C3789.1,5549.2,3689.1,5571.2,3610.1,5532.2z"
				/>
			<path class="st1" d="M4853.1,5539.2c-16-7-45-28-63-47c-97-100-47-273,90-309c135-37,265,93,229,228
				C5080.1,5519.2,4952.1,5583.2,4853.1,5539.2z"/>
			<path class="st1" d="M6083.1,5537.2c-68-35-115-106-115-174c0-78,62-159,138-180c46-12,58-12,104,0c105,30,164,149,123,248
				C6291.1,5531.2,6170.1,5582.2,6083.1,5537.2z"/>
			<path class="st1" d="M7307.1,5533.2c-131-69-142-245-20-325c97-64,224-27,272,80c34,74,22,144-34,204
				C7466.1,5554.2,7378.1,5571.2,7307.1,5533.2z"/>
			<path class="st1" d="M8543.1,5534.2c-55-25-85-61-101-120c-38-149,100-280,241-227c55,21,112,83,121,131
				C8834.1,5477.2,8686.1,5600.2,8543.1,5534.2z"/>
			<path class="st1" d="M9789.1,5542.2c-107-43-151-161-100-266c36-75,137-118,215-93c43,14,98,61,120,102c31,60,9,173-43,220
				C9935.1,5547.2,9845.1,5564.2,9789.1,5542.2z"/>
			<path class="st1" d="M11000.1,5532.2c-80-40-122-144-93-232c15-46,78-102,131-118c49-15,114-2,162,32c55,40,85,138,63,210
				C11231.1,5529.2,11102.1,5582.2,11000.1,5532.2z"/>
			<path class="st1" d="M12243.1,5539.2c-38-17-90-72-104-109c-25-66-4-153,51-204c28-26,89-53,120-53c122,0,219,123,188,238
				C12469.1,5520.2,12342.1,5583.2,12243.1,5539.2z"/>
			<path class="st1" d="M533.1,4916.2c-76-40-109-99-103-184c5-75,40-129,103-159c89-43,201-6,245,80c37,72,20,182-36,231
				S592.1,4948.2,533.1,4916.2z"/>
			<path class="st1" d="M1760.1,4912.2c-109-54-136-201-54-291c62-69,137-86,218-49c114,52,145,203,61,298
				C1927.1,4935.2,1841.1,4952.2,1760.1,4912.2z"/>
			<path class="st1" d="M3003.1,4919.2c-64-29-114-106-115-176c0-49,37-118,83-154c35-28,46-31,107-31s72,3,107,31
				c46,36,83,105,83,154c-1,70-59,155-123,179C3107.1,4937.2,3039.1,4935.2,3003.1,4919.2z"/>
			<path class="st1" d="M4233.1,4919.2c-59-25-115-112-115-177c0-30,30-103,53-128c30-32,94-61,140-61c108,0,197,104,184,216
				C4482.1,4890.2,4345.1,4968.2,4233.1,4919.2z"/>
			<path class="st1" d="M5456.1,4913.2c-61-32-92-82-96-155c-3-48,0-70,17-102c88-174,351-109,351,85c0,46-21,105-48,135
				C5630.1,4932.2,5525.1,4949.2,5456.1,4913.2z"/>
			<path class="st1" d="M6693.1,4916.2c-69-36-105-95-105-169c0-200,261-268,351-91c30,59,24,151-14,201
				C6871.1,4927.2,6764.1,4954.2,6693.1,4916.2z"/>
			<path class="st1" d="M7920.1,4912.2c-75-37-115-124-98-214c8-43,68-113,113-132c66-27,160-6,210,48c23,25,53,98,53,128
				c0,66-57,152-117,177C8034.1,4939.2,7969.1,4936.2,7920.1,4912.2z"/>
			<path class="st1" d="M9163.1,4919.2c-40-18-80-62-99-108c-64-152,106-314,252-239c67,35,112,104,112,174c0,48-44,128-86,156
				C9298.1,4932.2,9209.1,4941.2,9163.1,4919.2z"/>
			<path class="st1" d="M10393.1,4919.2c-42-18-92-78-105-126c-50-185,179-320,313-184c91,91,67,248-45,303
				C10506.1,4936.2,10438.1,4939.2,10393.1,4919.2z"/>
			<path class="st1" d="M11618.1,4914.2c-19-10-48-35-64-55c-59-72-44-207,29-264c93-73,234-43,284,60c34,72,23,166-27,221
				S11684.1,4950.2,11618.1,4914.2z"/>
			<path class="st1" d="M-91.9,4292.2c-107-62-127-209-41-299c56-59,133-74,206-41c108,49,147,182,81,281
				C104.1,4309.2-13.9,4338.2-91.9,4292.2z"/>
			<path class="st1" d="M1153.1,4299.2c-166-74-129-333,52-362c76-12,169,41,199,113c27,63,11,157-34,206
				C1323.1,4308.2,1219.1,4328.2,1153.1,4299.2z"/>
			<path class="st1" d="M2383.1,4297.2c-69-36-105-96-105-175c0-99,68-174,167-185c70-8,148,34,181,96c34,65,28,154-14,207
				c-17,21-46,46-65,55C2505.1,4317.2,2423.1,4318.2,2383.1,4297.2z"/>
			<path class="st1" d="M3613.1,4297.2c-45-23-66-45-86-89c-37-80-20-166,44-222c126-110,310-26,310,142c0,77-48,149-116,174
				C3724.1,4318.2,3648.1,4315.2,3613.1,4297.2z"/>
			<path class="st1" d="M4835.1,4292.2c-102-54-126-199-49-291c99-118,282-71,323,82c21,80-25,176-102,216
				C4967.1,4319.2,4881.1,4316.2,4835.1,4292.2z"/>
			<path class="st1" d="M6057.1,4284.2c-34-21-51-41-67-79c-12-28-22-61-22-74c0-136,137-233,258-183c49,21,81,52,103,100
				C6407.1,4217.2,6214.1,4384.2,6057.1,4284.2z"/>
			<path class="st1" d="M7303.1,4294.2c-78-47-116-132-96-211c38-144,196-195,306-98c96,84,78,251-35,308
				C7427.1,4319.2,7344.1,4320.2,7303.1,4294.2z"/>
			<path class="st1" d="M8548.1,4302.2c-102-41-144-174-87-272c63-106,191-126,284-44c43,38,63,82,63,137c0,45-21,104-48,133
				C8715.1,4306.2,8613.1,4328.2,8548.1,4302.2z"/>
			<path class="st1" d="M9769.1,4295.2c-19-9-48-34-65-55c-25-31-31-49-34-102c-4-56-1-70,22-109c36-61,86-90,156-91
				c71,0,124,26,158,78c23,35,27,51,27,113c0,66-3,76-31,111c-40,50-87,73-149,73C9825.1,4313.2,9788.1,4305.2,9769.1,4295.2z"/>
			<path class="st1" d="M11003.1,4297.2c-45-23-66-45-86-89c-37-80-20-166,44-222c69-60,154-67,229-18c68,45,97,142,69,227
				c-13,40-64,92-104,107C11114.1,4318.2,11038.1,4315.2,11003.1,4297.2z"/>
			<path class="st1" d="M12225.1,4292.2c-102-54-126-199-49-291c100-118,283-71,322,83c20,81-24,175-101,215
				C12357.1,4319.2,12271.1,4316.2,12225.1,4292.2z"/>
			<path class="st1" d="M538.1,3677.3c-69-30-110-93-110-169c0-60,19-103,63-142c91-80,228-56,288,50c31,56,24,150-14,201
				C712.1,3686.3,617.1,3711.3,538.1,3677.3z"/>
			<path class="st1" d="M1760.1,3672.3c-116-58-135-222-36-308c122-108,307-21,308,144c0,60-23,105-77,148
				C1904.1,3698.3,1823.1,3704.3,1760.1,3672.3z"/>
			<path class="st1" d="M3003.1,3679.3c-39-18-80-62-99-108c-55-131,63-277,205-253c47,8,113,54,133,94c23,44,30,104,16,146
				c-16,47-66,104-107,121C3110.1,3697.3,3042.1,3696.3,3003.1,3679.3z"/>
			<path class="st1" d="M4230.1,3676.3c-18-8-45-31-62-49c-119-136,14-352,188-304c124,33,180,182,109,289
				C4418.1,3683.3,4306.1,3714.3,4230.1,3676.3z"/>
			<path class="st1" d="M5456.1,3673.3c-61-33-92-82-96-156c-4-54-1-70,21-106c26-45,78-81,134-93c70-14,170,41,199,112
				c29,68,9,168-43,215C5618.1,3694.3,5520.1,3706.3,5456.1,3673.3z"/>
			<path class="st1" d="M6709.1,3682.3c-74-30-121-97-121-174c0-60,19-103,63-142c95-83,234-56,292,57c26,51,17,147-18,194
				C6875.1,3682.3,6780.1,3711.3,6709.1,3682.3z"/>
			<path class="st1" d="M7920.1,3672.3c-116-57-135-222-36-308c107-95,268-42,304,100c15,60,0,116-43,166
				C8087.1,3695.3,8001.1,3712.3,7920.1,3672.3z"/>
			<path class="st1" d="M9163.1,3679.3c-69-30-122-124-112-197c18-135,175-210,286-136c102,68,118,192,38,284c-18,20-46,42-64,49
				C9270.1,3696.3,9202.1,3696.3,9163.1,3679.3z"/>
			<path class="st1" d="M10393.1,3679.3c-43-18-92-78-105-127c-37-135,93-266,228-229c124,33,180,182,109,289
				C10579.1,3681.3,10470.1,3713.3,10393.1,3679.3z"/>
			<path class="st1" d="M11616.1,3673.3c-62-33-92-82-96-159c-3-58,0-71,24-108c29-43,78-76,131-88c70-14,170,41,199,112
				c29,68,9,168-43,215C11778.1,3694.3,11680.1,3706.3,11616.1,3673.3z"/>
			<path class="st1" d="M-76.9,3059.3c-137-62-147-261-16-334c44-25,117-31,162-14c109,42,151,182,85,282
				C107.1,3064.3,2.1,3094.3-76.9,3059.3z"/>
			<path class="st1" d="M1153.1,3059.3c-67-31-107-97-106-178c0-53,11-80,50-121c38-41,75-58,131-59c140-1,229,136,172,264
				c-29,67-80,101-156,105C1207.1,3072.3,1171.1,3068.3,1153.1,3059.3z"/>
			<path class="st1" d="M2378.1,3054.3c-57-30-93-83-98-145c-2-29,1-69,7-88c33-100,171-151,267-100c36,19,83,80,90,117
				c24,130-57,235-181,235C2433.1,3073.3,2399.1,3065.3,2378.1,3054.3z"/>
			<path class="st1" d="M3613.1,3057.3c-139-72-140-269-1-341c37-19,124-20,161,0c68,35,108,99,108,172c0,77-48,149-116,174
				C3724.1,3078.3,3648.1,3075.3,3613.1,3057.3z"/>
			<path class="st1" d="M4835.1,3052.3c-113-60-128-234-25-312c165-126,380,66,275,245C5037.1,3067.3,4922.1,3098.3,4835.1,3052.3z"
				/>
			<path class="st1" d="M6066.1,3050.3c-99-60-125-182-59-274c75-104,237-99,308,9c23,34,28,53,28,103c0,51-5,69-28,102
				C6259.1,3071.3,6146.1,3099.3,6066.1,3050.3z"/>
			<path class="st1" d="M7313.1,3059.3c-60-27-99-81-111-155c-10-60,33-142,91-177c101-59,230-16,271,91c47,125-42,256-173,255
				C7365.1,3072.3,7330.1,3066.3,7313.1,3059.3z"/>
			<path class="st1" d="M8548.1,3062.3c-33-13-78-57-97-93c-18-35-20-124-3-157c36-70,98-110,170-111c140-1,229,136,172,264
				c-30,68-80,102-156,105C8601.1,3072.3,8562.1,3068.3,8548.1,3062.3z"/>
			<path class="st1" d="M9768.1,3054.3c-105-56-134-200-58-287c42-48,80-66,142-66c195-2,259,261,86,353
				C9893.1,3079.3,9813.1,3079.3,9768.1,3054.3z"/>
			<path class="st1" d="M11003.1,3057.3c-121-63-141-220-41-313c25-23,115-54,139-46c7,2,24,6,39,9c34,8,94,59,114,98
				c20,38,20,128,1,165c-20,37-65,79-100,92C11114.1,3078.3,11038.1,3075.3,11003.1,3057.3z"/>
			<path class="st1" d="M12225.1,3053.3c-148-81-115-311,51-348c198-45,313,223,145,338
				C12372.1,3077.3,12278.1,3082.3,12225.1,3053.3z"/>
			<path class="st1" d="M593.1,2456.2c-55-11-66-15-95-39c-64-54-88-152-56-227c25-62,111-117,182-117c36,0,118,49,143,85
				c45,67,40,172-11,231C711.1,2440.2,647.1,2466.2,593.1,2456.2z"/>
			<path class="st1" d="M1804.1,2451.2c-115-25-177-154-127-263c84-185,355-124,355,80C2032.1,2391.2,1923.1,2478.2,1804.1,2451.2z"
				/>
			<path class="st1" d="M3042.1,2453.2c-92-21-149-91-149-185c0-73,23-117,84-160c35-25,52-30,101-30s66,5,101,30c23,17,53,50,67,75
				C3318.1,2318.2,3190.1,2487.2,3042.1,2453.2z"/>
			<path class="st1" d="M4272.1,2453.2c-158-36-202-246-72-340c157-114,360,58,279,236C4444.1,2425.2,4352.1,2472.2,4272.1,2453.2z"
				/>
			<path class="st1" d="M5523.1,2456.2c-11-2-30-6-42-9c-33-6-94-63-109-101c-41-96,0-207,89-249c29-13,61-24,72-24
				c73,0,164,62,186,127c19,58,7,137-27,181C5650.1,2433.2,5575.1,2466.2,5523.1,2456.2z"/>
			<path class="st1" d="M6725.1,2448.2c-26-7-59-23-73-36c-59-55-81-150-50-222c25-62,111-117,181-117c11,0,43,11,72,24
				c69,32,103,89,103,170c0,67-15,101-65,144c-31,28-47,35-105,46C6779.1,2459.2,6751.1,2455.2,6725.1,2448.2z"/>
			<path class="st1" d="M7964.1,2451.2c-149-33-195-231-77-331c123-103,304-15,305,148C8193.1,2389.2,8081.1,2478.2,7964.1,2451.2z"
				/>
			<path class="st1" d="M9190.1,2451.2c-56-12-117-71-132-129c-52-191,174-328,311-190C9506.1,2268.2,9380.1,2492.2,9190.1,2451.2z"
				/>
			<path class="st1" d="M10433.1,2453.2c-44-10-69-25-103-64c-121-138,11-354,186-307c113,31,172,158,123,267
				C10605.1,2425.2,10512.1,2472.2,10433.1,2453.2z"/>
			<path class="st1" d="M11683.1,2458.2c-5-2-22-6-37-9c-37-8-98-63-114-103c-24-56-18-133,13-181s107-92,157-92
				c66,1,152,61,175,123c37,96-26,234-115,252C11711.1,2459.2,11693.1,2461.2,11683.1,2458.2z"/>
			<path class="st1" d="M-82.9,1816.3c-162-83-127-314,54-357c68-16,166,37,198,108c48,107-9,235-119,266
				C-4.9,1848.3-22.9,1846.3-82.9,1816.3z"/>
			<path class="st1" d="M1186.1,1833.3c-126-39-181-180-111-287c65-102,211-117,289-31c42,45,56,87,52,149c-5,64-38,118-94,151
				C1286.1,1836.3,1222.1,1845.3,1186.1,1833.3z"/>
			<path class="st1" d="M2404.1,1828.3c-77-27-126-96-126-179c0-110,77-189,185-189c77,0,149,48,174,116c15,39,14,111-3,150
				c-17,43-76,93-123,106C2463.1,1846.3,2452.1,1845.3,2404.1,1828.3z"/>
			<path class="st1" d="M3634.1,1829.3c-173-64-166-311,11-362c120-35,234,52,235,180C3881.1,1777.3,3752.1,1872.3,3634.1,1829.3z"
				/>
			<path class="st1" d="M4865.1,1828.3c-108-38-157-162-104-265c82-163,313-126,351,56c18,83-46,187-130,212
				C4931.1,1846.3,4913.1,1846.3,4865.1,1828.3z"/>
			<path class="st1" d="M6100.1,1832.3c-47-14-109-80-122-130c-34-124,55-242,181-243c60,0,117,31,154,83c40,57,43,145,6,204
				C6274.1,1819.3,6180.1,1856.3,6100.1,1832.3z"/>
			<path class="st1" d="M7328.1,1830.3c-78-25-141-131-125-211c23-109,129-182,228-155c152,40,197,231,78,332
				C7457.1,1839.3,7395.1,1851.3,7328.1,1830.3z"/>
			<path class="st1" d="M8540.1,1818.3c-136-69-141-261-8-336c72-41,169-26,222,33c42,45,56,87,52,149c-3,47-11,66-35,96
				C8707.1,1841.3,8625.1,1861.3,8540.1,1818.3z"/>
			<path class="st1" d="M9794.1,1828.3c-78-28-126-96-126-180c0-60,19-103,63-142c60-53,137-63,207-27c34,17,77,63,89,97
				c15,39,14,111-3,150c-17,43-76,93-123,106C9853.1,1846.3,9842.1,1845.3,9794.1,1828.3z"/>
			<path class="st1" d="M11025.1,1829.3c-173-64-166-311,9-362c163-47,295,128,211,279
				C11205.1,1818.3,11101.1,1857.3,11025.1,1829.3z"/>
			<path class="st1" d="M12255.1,1828.3c-146-52-170-249-40-339c119-83,288,10,287,159c-1,91-53,160-139,184
				C12313.1,1846.3,12302.1,1845.3,12255.1,1828.3z"/>
			<path class="st1" d="M565.1,1208.3c-149-38-186-236-62-331c65-49,170-45,232,9c45,39,63,82,63,147c0,61-17,96-65,138
				c-31,28-47,35-105,46C619.1,1219.3,591.1,1215.3,565.1,1208.3z"/>
			<path class="st1" d="M1763.1,1197.3c-45-23-66-45-86-89c-31-67-19-155,29-208c47-52,147-72,215-43c57,23,117,111,117,171
				c0,56-56,142-111,171C1890.1,1218.3,1801.1,1217.3,1763.1,1197.3z"/>
			<path class="st1" d="M2985.1,1192.3c-20-11-49-38-65-61c-37-56-38-145-4-201c75-119,267-114,328,9c29,59,25,141-9,193
				C3184.1,1209.3,3070.1,1237.3,2985.1,1192.3z"/>
			<path class="st1" d="M4213.1,1189.3c-69-42-105-131-85-206c13-48,67-112,110-130c50-21,142-9,185,24c98,75,98,227,0,302
				c-31,23-49,29-104,32C4263.1,1213.3,4247.1,1210.3,4213.1,1189.3z"/>
			<path class="st1" d="M5468.1,1202.3c-32-13-78-56-96-91c-18-34-18-119,0-161c43-104,195-142,283-70c56,45,75,87,71,160
				c-3,51-9,69-34,100c-17,21-46,46-65,55C5590.1,1215.3,5508.1,1218.3,5468.1,1202.3z"/>
			<path class="st1" d="M6689.1,1195.3c-122-62-136-234-26-318c64-49,170-45,231,8c47,42,64,77,64,137c0,61-13,97-48,135
				C6857.1,1213.3,6758.1,1231.3,6689.1,1195.3z"/>
			<path class="st1" d="M7923.1,1197.3c-45-23-66-45-86-89c-31-67-19-155,29-208c47-52,147-72,215-43c71,29,126,129,112,199
				c-12,55-48,108-91,133C8053.1,1218.3,7969.1,1221.3,7923.1,1197.3z"/>
			<path class="st1" d="M9146.1,1193.3c-65-35-106-118-94-193c27-168,250-216,343-75c40,59,40,147,0,206c-15,23-45,51-67,62
				C9277.1,1219.3,9196.1,1219.3,9146.1,1193.3z"/>
			<path class="st1" d="M10383.1,1195.3c-57-36-105-112-105-167c0-56,56-142,111-171c61-31,174-9,221,43c71,79,58,214-27,279
				C10533.1,1217.3,10430.1,1225.3,10383.1,1195.3z"/>
			<path class="st1" d="M11623.1,1202.3c-33-19-76-62-91-91c-17-32-18-115-3-155c13-34,55-80,91-99s125-17,167,4
				c123,61,136,234,25,319c-30,22-49,28-103,31C11671.1,1212.3,11634.1,1209.3,11623.1,1202.3z"/>
			<path class="st1" d="M-43.9,593.3c-125-37-180-172-116-282c32-53,59-73,121-88c83-22,171,22,208,105c49,106-6,225-120,264
				C10.1,605.3-4.9,605.3-43.9,593.3z"/>
			<path class="st1" d="M1186.1,593.3c-124-37-178-173-113-285c55-96,191-120,275-48c117,98,77,292-68,333
				C1238.1,604.3,1224.1,604.3,1186.1,593.3z"/>
			<path class="st1" d="M2443.1,598.3c-5-2-22-6-37-9c-37-8-98-63-114-103c-18-41-18-115,0-156c23-57,111-117,171-117
				c32,0,90,25,122,53c44,39,63,82,63,142c0,25-6,60-14,78C2606.1,554.3,2499.1,617.3,2443.1,598.3z"/>
			<path class="st1" d="M3673.1,598.3c-5-2-22-6-37-9c-66-15-128-102-128-181c0-113,111-211,213-190c214,45,211,346-3,379
				C3699.1,600.3,3679.1,600.3,3673.1,598.3z"/>
			<path class="st1" d="M4878.1,592.3c-116-34-172-162-117-269c89-178,348-114,351,86C5114.1,530.3,4992.1,625.3,4878.1,592.3z"/>
			<path class="st1" d="M6104.1,591.3c-84-23-145-122-131-214c25-167,241-214,340-75c26,37,30,52,30,106s-5,70-30,106
				C6265.1,582.3,6183.1,612.3,6104.1,591.3z"/>
			<path class="st1" d="M7346.1,593.3c-81-25-130-83-144-168c-8-51,30-139,73-170c102-73,240-35,287,80
				C7620.1,474.3,7483.1,637.3,7346.1,593.3z"/>
			<path class="st1" d="M8576.1,593.3c-124-37-179-173-115-282c61-105,213-124,293-36c98,107,53,280-84,318
				C8628.1,604.3,8614.1,604.3,8576.1,593.3z"/>
			<path class="st1" d="M9833.1,598.3c-5-2-22-6-37-9c-37-8-98-63-114-103c-8-18-14-53-14-78c0-60,19-103,63-142c32-28,90-53,122-53
				s90,25,122,53c44,39,63,82,63,142c0,25-6,60-14,78C9996.1,554.3,9889.1,617.3,9833.1,598.3z"/>
			<path class="st1" d="M11063.1,598.3c-5-2-22-6-37-9c-37-8-85-51-110-99c-15-31-19-54-16-99c10-139,158-217,279-146
				c120,71,122,258,2,325C11144.1,591.3,11083.1,606.3,11063.1,598.3z"/>
			<path class="st1" d="M12259.1,588.3c-177-56-170-317,10-365c77-21,174,22,211,93C12559.1,468.3,12420.1,640.3,12259.1,588.3z"/>
		</g>
	</g>
</g>
</svg>
