<?xml version="1.0" encoding="utf-8"?>
<!-- Generator: Adobe Illustrator 27.2.0, SVG Export Plug-In . SVG Version: 6.00 Build 0)  -->
<svg version="1.1" id="Layer_1" xmlns="http://www.w3.org/2000/svg" xmlns:xlink="http://www.w3.org/1999/xlink" x="0px" y="0px"
	 viewBox="0 0 342.1 552.8" style="enable-background:new 0 0 342.1 552.8;" xml:space="preserve">
<style type="text/css">
	.st0{fill:none;stroke:#000000;stroke-width:10;stroke-linecap:round;stroke-linejoin:round;stroke-miterlimit:10;}
</style>
<g>
	<path class="st0" d="M133.3,470.4c3,10,9.3,29.5,48.2,29.5s105.4-31,113.5-99.3"/>
	<path class="st0" d="M239.9,374c10.7,19.2,20.9,29.4,36.5,29.4c18.7,0,60.7-15.2,60.7-96.6c0-29.6-12.4-57.1-55.1-57.1"/>
	<path class="st0" d="M168.1,323.8c0,20.7,0,61.1,46.1,61.1c29.1,0,66.6-48.2,66.6-96.1s-11.4-74.4-43.6-74.4"/>
	<path class="st0" d="M140.4,437.8c6.8-16.9,8.8-30.5,8.8-37.2c0-65.5-57.5-74-91.3-85.2c34.2,11,57,14.4,85,12.5
		c31.7-2.1,68.6-21.7,68.6-46.9c0-18.8-8.8-35.1-41.8-35.1c-23.6,0-36.7-1.3-55.5-6.1s-23.4-5.2-37.3-5.2
		C61.2,234.7,5,264.7,5,335.2c0,83.7,42.1,167.6,139.2,154.6"/>
	<path class="st0" d="M86.9,230.3c-16-87.6-67.4-142.5-67.4-173.8C19.4,28.6,37.5,5,63.2,5S155,33.2,155,244.2
		c3.5-87.3,10.4-236,68.1-236c29.9,0,55.6,29.9,55.6,57.7c0,37.5-30.6,139-68.8,200.9"/>
	<path class="st0" d="M65.8,476.2c0,22.6,11,71.6,92.3,71.6c66.7,0,64.2-49.5,65.4-57.5"/>
</g>
</svg>
