<?xml version="1.0" encoding="utf-8"?>
<!-- Generator: Adobe Illustrator 27.2.0, SVG Export Plug-In . SVG Version: 6.00 Build 0)  -->
<svg version="1.1" id="Layer_1" xmlns="http://www.w3.org/2000/svg" xmlns:xlink="http://www.w3.org/1999/xlink" x="0px" y="0px"
	 viewBox="0 0 694.6 334.1" style="enable-background:new 0 0 694.6 334.1;" xml:space="preserve">
<style type="text/css">
	.st0{fill:none;}
</style>
<g>
	<path d="M552.7,63.6L552.7,63.6c0-35.1-28.5-63.6-63.6-63.6s-63.6,28.5-63.6,63.6V143h0v127.5h0c0,35.1,28.5,63.6,63.6,63.6
		s63.6-28.5,63.6-63.6V143h0V63.6z M493.9,304.1c0,2.6-2.1,4.7-4.8,4.7s-4.7-2.1-4.7-4.7V143h0V30c0-2.6,2.1-4.7,4.8-4.7
		s4.7,2.1,4.7,4.7v113h0V304.1z"/>
	<path d="M352,176.7v127.4c0,2.6-2.1,4.7-4.8,4.7s-4.7-2.1-4.7-4.7V143h0V30c0-2.6,2.1-4.7,4.8-4.7s4.7,2.1,4.7,4.7v113h0v14.5h58.8
		V143h0V63.6h0c0-35.1-28.5-63.6-63.6-63.6s-63.6,28.5-63.6,63.6V143h0v127.5h0c0,35.1,28.5,63.6,63.6,63.6s63.6-28.5,63.6-63.6
		v-93.8H352z"/>
	<g>
		<path class="st0" d="M205.4,176.7c-2.6,0-4.7,2.1-4.7,4.7v122.7c0,2.6,2.1,4.7,4.7,4.7s4.7-2.1,4.7-4.7V181.5
			C210.1,178.8,208,176.7,205.4,176.7z"/>
		<path d="M141.8,242.8v27.7c0,0,0,0,0,0L141.8,242.8L141.8,242.8z"/>
		<path d="M269,334.1V63.6C269,28.5,240.5,0,205.4,0c-35.1,0-63.6,28.5-63.6,63.6h0l0,75.4h58.8l0-109c0-2.6,2.1-4.7,4.7-4.7
			s4.8,2.1,4.8,4.7v123.2c0,2.6-2.1,4.7-4.7,4.7l-31.8,0c-17.5,0-31.7,14.2-31.7,31.7v80.9c0,35.1,28.5,63.5,63.6,63.5H269z
			 M210.1,304.1c0,2.6-2.1,4.7-4.7,4.7s-4.7-2.1-4.7-4.7V181.5c0-2.6,2.1-4.7,4.7-4.7s4.7,2.1,4.7,4.7V304.1z"/>
	</g>
	<g>
		<path d="M127.1,143V0H68.3v143h0v161.1c0,2.6-2.1,4.7-4.7,4.7s-4.8-2.1-4.8-4.7V158H0v112.6c0,35.1,28.5,63.6,63.6,63.6
			s63.6-28.5,63.6-63.6h0L127.1,143L127.1,143z"/>
	</g>
	<path d="M694.6,103.5V63.5C694.6,28.4,666.1,0,631,0h-63.6v334.1H631c35.1,0,63.5-28.4,63.6-63.5v-40h0v0
		c0-26.9-16.7-49.9-40.3-59.2c0,0,0,0,0,0c0,0,0,0,0,0c0,0,0,0,0,0v0c-1.7-0.7-2.9-2.4-2.9-4.4c0-2,1.2-3.7,2.9-4.4v0
		C677.9,153.4,694.6,130.4,694.6,103.5z M635.8,304.1c0,0.7-0.2,1.4-0.4,2c-0.5,1-1.3,1.8-2.3,2.3c0,0-0.1,0.1-0.1,0.1
		c-0.6,0.2-1.2,0.4-1.8,0.4c-0.9,0-1.7-0.2-2.4-0.7c-0.2-0.1-0.5-0.3-0.7-0.5c-0.3-0.2-0.5-0.5-0.7-0.8c-0.6-0.8-0.9-1.7-0.9-2.8
		V181.5c0-2.6,2.1-4.7,4.7-4.7s4.8,2.1,4.8,4.7V304.1z M635.8,153.2c0,2.6-2.1,4.7-4.8,4.7s-4.7-2.1-4.7-4.7V30
		c0-2.6,2.1-4.7,4.7-4.7c0.3,0,0.6,0,1,0.1c0.3,0.1,0.5,0.1,0.8,0.2c1.8,0.7,3,2.4,3,4.4V153.2z"/>
</g>
</svg>
