<?xml version="1.0" encoding="utf-8"?>
<!-- Generator: Adobe Illustrator 27.2.0, SVG Export Plug-In . SVG Version: 6.00 Build 0)  -->
<svg version="1.1" id="Layer_1" xmlns="http://www.w3.org/2000/svg" xmlns:xlink="http://www.w3.org/1999/xlink" x="0px" y="0px"
	 viewBox="0 0 705.6 522.3" style="enable-background:new 0 0 705.6 522.3;" xml:space="preserve">
<style type="text/css">
	.st0{fill:none;stroke:#CCCCCC;stroke-width:45;stroke-linecap:round;stroke-linejoin:round;stroke-miterlimit:10;}
</style>
<g>
	<path class="st0" d="M405.5,125.2c27.3,24.1,37.9,150.3,16.1,363.7"/>
	<path class="st0" d="M351.8,102.9c5.9-29.8,37.6-74.1,77.6-74.1s80.4,30.4,85.1,83.6s-18.1,126.8-105,116.3
		c86.9,10.5,264,42.8,264,134.1S462,475.9,402.2,476.9"/>
	<path class="st0" d="M75.4,128.8c50.1-14.4,155.4-45,222.9-91.5c-1.4,52.8,12.8,256.7,18.5,343.6c5.7,86.9-38.5,112.6-74.2,112.6
		s-114,3.2-210.4-105"/>
</g>
</svg>
