<?xml version="1.0" encoding="utf-8"?>
<!-- Generator: Adobe Illustrator 27.2.0, SVG Export Plug-In . SVG Version: 6.00 Build 0)  -->
<svg version="1.1" id="Layer_1" xmlns="http://www.w3.org/2000/svg" xmlns:xlink="http://www.w3.org/1999/xlink" x="0px" y="0px"
	 viewBox="0 0 777.9 519.5" style="enable-background:new 0 0 777.9 519.5;" xml:space="preserve">
<style type="text/css">
	.st0{fill:none;stroke:#E700C1;stroke-width:30;stroke-linecap:round;stroke-linejoin:round;stroke-miterlimit:10;}
	.st1{fill:none;stroke:#000000;stroke-width:40;stroke-linecap:round;stroke-linejoin:round;stroke-miterlimit:10;}
</style>
<g>
	<g>
		<g>
			<path d="M699.4,449.9c40.7-21,78.5-48.6,78.5-80.2s-25.1-58.4-25.1-58.4c-51.2-59.6-122.3-75.5-191.1-91.4
				c-5.3-1.3-10.6-2.2-15.9-3.5c0.9-3.1,3.1-4.9,5.7-6.6c0.9-0.9,2.2-1.8,3.5-3.1c20.3-20.3,34.9-42.4,44.1-67.5
				c13.7-35.3,7.1-64-19.9-88.7c-18.5-16.8-34.9-27.8-52.1-35.3c-19.9-8.4-35.8-12.4-49.9-12.4c-17.2,0-32.2,5.7-45.5,16.8
				c-30.5,24.7-45.9,60.9-47.7,110.3c-0.4,10.2,7.9,13.7,14.1,15.4c1.8,0.4,3.5,0.9,4.9,0.9c6.2,0,10.6-3.1,14.1-9.7
				c3.5-6.6,4.9-14.6,4.4-24.3C420,81.4,433.3,58.4,460.6,46c9.7-4.4,19.4-6.6,29.1-6.6c17.2,0,34.9,7.1,50.8,20.7
				c23.4,19.9,34,49.9,25.2,72.8c-8.4,21.2-22.1,39.7-43.7,60.9c0-1.8-0.4-3.5-0.4-5.3c-2.2-23-4.9-44.1-14.1-64.4
				c-5.7-12.4-14.1-26-30-33.1c-3.5-1.3-7.1-2.2-10.2-2.2c-6.2,0-12.4,2.6-17.2,8.4c-7.9,8.8-8.8,20.3-3.1,31.3
				c3.5,6.6,8.8,10.2,14.6,10.2c2.6,0,5.7-0.9,8.4-2.2c1.8-0.9,2.6-0.9,3.1-0.9c0.9,0,0.9,0.4,1.8,3.5l0.4,1.3
				c5.7,21.6,10.6,44.6,10.2,69.3c-4.4-0.4-7.9-2.2-11.5-3.5c-4-1.8-7.9-3.5-12.8-3.5h-0.9c-10.2,0.4-21.6,0.9-23.4,15.9
				c-0.9,7.5,0,13.7,3.5,17.7c3.1,4.4,8.4,6.6,15.4,7.5c1.8,0.4,4,0.4,5.7,0.9c4,0.9,7.9,1.3,11.9,1.3c0.9,0,1.8,0,2.6,0
				s1.3,0,2.2,0c3.1,0,5.3,0.4,6.6,1.8c1.3,1.3,1.8,4.4,1.3,8.4c-1.3,9.7-1.8,19.9-2.6,29.6c-0.4,6.6-1.3,13.2-1.8,19.9
				c-1.3,11.5-2.6,23-4,34.4c-4,30-7.9,60.9-5.3,92.3c0.4,4,1.3,7.9,2.2,11.9c1.8,7.5,3.5,14.6,0.9,19.4c-2.6,4.4-7.1,5.3-13.7,5.3
				c-0.9,0-2.2,0-3.5,0s-2.6,0-4,0c-2.6,0-6.2,0-9.7,0.9c-0.4,0-1.8,0.4-1.8,0.4c-11,3.1-16.3,9.3-15.4,18.5
				c1.3,11.9,11.9,12.8,18.1,13.2c15,1.3,29.6,1.8,43.3,1.8C568.3,503.8,637.2,486.1,699.4,449.9l0.9-0.4 M720.2,366.1
				c-1.3,14.1-10.6,27.8-27.4,40.2c-43.7,33.1-95.3,46.8-135.1,55.2c-7.5,1.3-15,2.6-22.5,3.5c-3.5,0.4-7.1,0.9-10.6,1.3
				c-2.2,0.4-4.4,0.9-6.2,0.9c-6.6,0-8.8-4-8.8-15.9c0-38,2.6-76.8,5.3-113.9c1.8-27.8,4-56.5,4.9-85.2c0.4-7.9,3.1-8.4,6.6-8.4
				c1.3,0,2.6,0,3.5,0.4c64,8.8,115.2,29.6,156.7,63.1c4.4,3.5,8.4,7.5,13.2,12.8C714.9,336.5,721.5,351.9,720.2,366.1z"/>
		</g>
	</g>
	<g>
		<path d="M366.2,144.8c0-45.5,0.4-78.9,7.7-115c2.2-11.9-4.8-23.2-14.5-27.6c-3.2-1.4-6.5-2.2-9.7-2.2c-7.2,0-13.4,3.6-17.3,10.1
			C325,21.7,314.5,28.2,303,35l-3.2,1.8c-53.1,32.5-129,60.2-175,71.5c-9.4,2.2-21.7,6.1-31.1,15.2c-7.9,7.2-11.1,19.9-6.4,28.2
			c4.3,7.6,16.6,14.6,23.8,14.6c1.8,0,4,0,6.1-0.7c8.3-2.2,18.4-5.1,27.1-10.5c37.5-23.1,101-53.3,140.7-69.9l12.3-5.1
			c8.3-3.6,16.2-6.9,24.9-10.1c3.6-1.4,6.9-2.5,10.1-4c0,4.3-0.4,8.7-0.7,12.6c-0.7,9.7-1.4,19.5-1.8,28.9
			c-1.4,37.9,6.9,134.9,8.3,151.8C342.8,312,350,376.5,350,398.9s-13.7,81-75.1,81c-105,0-213.9-70.9-231.5-83.3
			c-11.2-7.7-13.8-21.2-27.7-21.2c-12.5,0-15.8,10.6-15.8,19.5c0,26.1,116.4,124.3,292,124.3c82.9,0,95.7-64.1,95.7-128.6
			C387.6,334.6,366.2,190.3,366.2,144.8z"/>
	</g>
</g>
<g>
	<g>
		<g>
			<path d="M-3540.5,2042.7c40.7-21,78.5-48.6,78.5-80.2s-25.1-58.4-25.1-58.4c-51.2-59.6-122.3-75.5-191.1-91.4
				c-5.3-1.3-10.6-2.2-15.9-3.5c0.9-3.1,3.1-4.9,5.7-6.6c0.9-0.9,2.2-1.8,3.5-3.1c20.3-20.3,34.9-42.4,44.1-67.5
				c13.7-35.3,7.1-64-19.9-88.7c-18.5-16.8-34.9-27.8-52.1-35.3c-19.9-8.4-35.8-12.4-49.9-12.4c-17.2,0-32.2,5.7-45.5,16.8
				c-30.5,24.7-45.9,60.9-47.7,110.3c-0.4,10.2,7.9,13.7,14.1,15.4c1.8,0.4,3.5,0.9,4.9,0.9c6.2,0,10.6-3.1,14.1-9.7
				s4.9-14.6,4.4-24.3c-1.5-30.8,11.8-53.8,39.1-66.2c9.7-4.4,19.4-6.6,29.1-6.6c17.2,0,34.9,7.1,50.8,20.7
				c23.4,19.9,34,49.9,25.2,72.8c-8.4,21.2-22.1,39.7-43.7,60.9c0-1.8-0.4-3.5-0.4-5.3c-2.2-23-4.9-44.1-14.1-64.4
				c-5.7-12.4-14.1-26-30-33.1c-3.5-1.3-7.1-2.2-10.2-2.2c-6.2,0-12.4,2.6-17.2,8.4c-7.9,8.8-8.8,20.3-3.1,31.3
				c3.5,6.6,8.8,10.2,14.6,10.2c2.6,0,5.7-0.9,8.4-2.2c1.8-0.9,2.6-0.9,3.1-0.9c0.9,0,0.9,0.4,1.8,3.5l0.4,1.3
				c5.7,21.6,10.6,44.6,10.2,69.3c-4.4-0.4-7.9-2.2-11.5-3.5c-4-1.8-7.9-3.5-12.8-3.5h-0.9c-10.2,0.4-21.6,0.9-23.4,15.9
				c-0.9,7.5,0,13.7,3.5,17.7c3.1,4.4,8.4,6.6,15.4,7.5c1.8,0.4,4,0.4,5.7,0.9c4,0.9,7.9,1.3,11.9,1.3c0.9,0,1.8,0,2.6,0
				s1.3,0,2.2,0c3.1,0,5.3,0.4,6.6,1.8c1.3,1.3,1.8,4.4,1.3,8.4c-1.3,9.7-1.8,19.9-2.6,29.6c-0.4,6.6-1.3,13.2-1.8,19.9
				c-1.3,11.5-2.6,23-4,34.4c-4,30-7.9,60.9-5.3,92.3c0.4,4,1.3,7.9,2.2,11.9c1.8,7.5,3.5,14.6,0.9,19.4c-2.6,4.4-7.1,5.3-13.7,5.3
				c-0.9,0-2.2,0-3.5,0s-2.6,0-4,0c-2.6,0-6.2,0-9.7,0.9c-0.4,0-1.8,0.4-1.8,0.4c-11,3.1-16.3,9.3-15.4,18.5
				c1.3,11.9,11.9,12.8,18.1,13.2c15,1.3,29.6,1.8,43.3,1.8C-3671.6,2096.6-3602.7,2078.9-3540.5,2042.7l0.9-0.4 M-3519.7,1958.9
				c-1.3,14.1-10.6,27.8-27.4,40.2c-43.7,33.1-95.3,46.8-135.1,55.2c-7.5,1.3-15,2.6-22.5,3.5c-3.5,0.4-7.1,0.9-10.6,1.3
				c-2.2,0.4-4.4,0.9-6.2,0.9c-6.6,0-8.8-4-8.8-15.9c0-38,2.6-76.8,5.3-113.9c1.8-27.8,4-56.5,4.9-85.2c0.4-7.9,3.1-8.4,6.6-8.4
				c1.3,0,2.6,0,3.5,0.4c64,8.8,115.2,29.6,156.7,63.1c4.4,3.5,8.4,7.5,13.2,12.8C-3525,1929.3-3518.4,1944.7-3519.7,1958.9z"/>
		</g>
	</g>
	<g>
		<path d="M-3873.7,1737.6c0-45.5,0.4-78.9,7.7-115c2.2-11.9-4.8-23.2-14.5-27.6c-3.2-1.4-6.5-2.2-9.7-2.2
			c-7.2,0-13.4,3.6-17.3,10.1c-7.4,11.6-17.9,18.1-29.4,24.9l-3.2,1.8c-53.1,32.5-129,60.2-175,71.5c-9.4,2.2-21.7,6.1-31.1,15.2
			c-7.9,7.2-11.1,19.9-6.4,28.2c4.3,7.6,16.6,14.6,23.8,14.6c1.8,0,4,0,6.1-0.7c8.3-2.2,18.4-5.1,27.1-10.5
			c37.5-23.1,101-53.3,140.7-69.9l12.3-5.1c8.3-3.6,16.2-6.9,24.9-10.1c3.6-1.4,6.9-2.5,10.1-4c0,4.3-0.4,8.7-0.7,12.6
			c-0.7,9.7-1.4,19.5-1.8,28.9c-1.4,37.9,6.9,134.9,8.3,151.8c4.7,52.7,11.9,117.2,11.9,139.6s-13.7,81-75.1,81
			c-105,0-213.9-70.9-231.5-83.3c-11.2-7.7-13.8-21.2-27.7-21.2c-12.5,0-15.8,10.6-15.8,19.5c0,26.1,116.4,124.3,292,124.3
			c82.9,0,95.7-64.1,95.7-128.6C-3852.3,1927.4-3873.7,1783.1-3873.7,1737.6z"/>
	</g>
</g>
<path class="st0" d="M-3409.9,1705.1c13.3,1.7,40,13.3,40,48.4s0,320.2,0,320.2"/>
<path class="st0" d="M-3249.6,1705.1c13.3,1.7,40,13.3,40,48.4s0,320.2,0,320.2"/>
<path class="st0" d="M-3772.8,1705.1c32.6,11.5,46.7,144.8,22.6,381.1"/>
<path class="st0" d="M-3839.7,1722.6c2.2-33.7,12.4-90.5,62-105.4c49.6-15,119,23,123.9,78.3c4.9,55.2-42.4,127.2-132.6,116.3
	c90.2,10.9,297.6,48.8,297.6,143.5s-246.5,123.9-308.5,125"/>
<path class="st0" d="M-2453.2,1705.1c32.6,11.5,46.7,144.8,22.6,381.1"/>
<path class="st0" d="M-2520.1,1722.6c2.2-33.7,12.4-90.5,62-105.4c49.6-15,119,23,123.9,78.3c4.9,55.2-42.4,127.2-132.6,116.3
	c90.2,10.9,297.6,48.8,297.6,143.5s-246.5,123.9-308.5,125"/>
<path class="st0" d="M-2818.2,1705.1c32.6,11.5,46.7,144.8,22.6,381.1"/>
<path class="st0" d="M-2885.1,1722.6c2.2-33.7,12.4-90.5,62-105.4c49.6-15,119,23,123.9,78.3c4.9,55.2-42.4,127.2-132.6,116.3
	c90.2,10.9,291.3,41.3,291.3,145.7s-240.2,121.8-302.2,122.8"/>
<path class="st0" d="M-4136,1734.3c48.8-17.8,179.1-66.6,244.2-116.9c-1.5,54.8,13.3,266.4,19.2,356.6c5.9,90.3-40,116.9-77,116.9
	c-37,0-146.5,1.5-275.3-102.1"/>
<path class="st0" d="M-4783.1,1705.1c32.6,11.5,46.7,144.8,22.6,381.1"/>
<path class="st0" d="M-4849.9,1722.6c2.2-33.7,12.4-90.5,62-105.4s119,23,123.9,78.3c4.9,55.2-42.4,127.2-132.6,116.3
	c90.2,10.9,297.6,48.8,297.6,143.5s-246.5,123.9-308.5,125"/>
<path class="st0" d="M-5146.2,1734.3c48.8-17.8,179.1-66.6,244.2-116.9c-1.5,54.8,13.3,266.4,19.2,356.6c5.9,90.3-40,116.9-77,116.9
	s-146.5,1.5-275.3-102.1"/>
<path class="st1" d="M-1263.7,1708.7c28.3,25,39.3,156,16.7,377.5"/>
<path class="st1" d="M-1319.4,1685.5c6.1-30.9,39.1-76.9,80.6-76.9c41.5,0,83.4,31.6,88.3,86.8c4.9,55.2-18.8,131.6-109,120.7
	c90.2,10.9,274,44.4,274,139.2s-219.5,117.3-281.5,118.4"/>
<path class="st1" d="M-1606.3,1712.4c52-14.9,161.3-46.7,231.3-95c-1.5,54.8,13.3,266.4,19.2,356.6c5.9,90.3-40,116.9-77,116.9
	s-118.3,3.3-218.4-109"/>
</svg>
