<?xml version="1.0" encoding="utf-8"?>
<!-- Generator: Adobe Illustrator 27.2.0, SVG Export Plug-In . SVG Version: 6.00 Build 0)  -->
<svg version="1.1" id="Layer_1" xmlns="http://www.w3.org/2000/svg" xmlns:xlink="http://www.w3.org/1999/xlink" x="0px" y="0px"
	 viewBox="0 0 418.6 335.7" style="enable-background:new 0 0 418.6 335.7;" xml:space="preserve">
<g>
	<path d="M0,13v315.5c0,4,3.2,7.2,7.2,7.2h173.7c4,0,7.2-3.2,7.2-7.2v-46.6c0-4-3.2-7.2-7.2-7.2H47.4c-4,0-7.2-3.2-7.2-7.2V14.7
		c0-4-3.2-7.2-7.2-7.2H5.5C2.4,7.5,0,9.9,0,13z"/>
	<path d="M229.4,119.4V6c0-3.3-2.7-6-6-6h-70.6c-3.3,0-6,2.7-6,6v250.7c0,3.3,2.7,6,6,6h70.6c3.3,0,6-2.7,6-6V143.4c0-3.3-2.7-6-6-6
		h-23.3c-3.3,0-6,2.7-6,6V198c0,3.3-2.7,6-6,6l0,0c-3.3,0-6-2.7-6-6V80c0-3.3,2.7-6,6-6l0,0c3.3,0,6,2.7,6,6v39.4c0,3.3,2.7,6,6,6
		h23.3C226.7,125.4,229.4,122.7,229.4,119.4z"/>
	<path d="M241.4,13.5V272c0,3.3,2.7,6,6,6H318c3.3,0,6-2.7,6-6V13.5c0-3.3-2.7-6-6-6h-70.6C244.1,7.5,241.4,10.2,241.4,13.5z
		 M282.7,204L282.7,204c-3.3,0-6-2.7-6-6V80c0-3.3,2.7-6,6-6l0,0c3.3,0,6,2.7,6,6v118C288.7,201.3,286,204,282.7,204z"/>
	<path d="M52.2,13.5v78.3c0,3.3,2.7,6,6,6h23.3c3.3,0,6-2.7,6-6V80c0-3.3,2.7-6,6-6h0c3.3,0,6,2.7,6,6v23.8c0,3.3-2.7,6-6,6H58.2
		c-3.3,0-6,2.7-6,6v141c0,3.3,2.7,6,6,6h70.6c3.3,0,6-2.7,6-6V13.5c0-3.3-2.7-6-6-6H58.2C54.9,7.5,52.2,10.2,52.2,13.5z M93.5,204
		L93.5,204c-3.3,0-6-2.7-6-6v-5.1c0-3.3,2.7-6,6-6h0c3.3,0,6,2.7,6,6v5.1C99.5,201.3,96.8,204,93.5,204z"/>
	<path d="M371.3,139.3L371.3,139.3c0-3.3,2.7-6,6-6h35.3c3.3,0,6-2.7,6-6V29.9c0-3.3-2.7-6-6-6H342c-3.3,0-6,2.7-6,6v218.9
		c0,3.3,2.7,6,6,6h70.6c3.3,0,6-2.7,6-6v-97.5c0-3.3-2.7-6-6-6h-35.3C374,145.3,371.3,142.6,371.3,139.3z M375.2,74L375.2,74
		c3.3,0,6,2.7,6,6v5.8c0,3.3-2.7,6-6,6l0,0c-3.3,0-6-2.7-6-6V80C369.2,76.7,371.9,74,375.2,74z M375.2,204L375.2,204
		c-3.3,0-6-2.7-6-6v-5.1c0-3.3,2.7-6,6-6l0,0c3.3,0,6,2.7,6,6v5.1C381.2,201.3,378.5,204,375.2,204z"/>
</g>
</svg>
